<?xml version="1.0" encoding="utf-8"?>
<!-- Generator: Adobe Illustrator 16.0.0, SVG Export Plug-In . SVG Version: 6.00 Build 0)  -->
<!DOCTYPE svg PUBLIC "-//W3C//DTD SVG 1.1//EN" "http://www.w3.org/Graphics/SVG/1.1/DTD/svg11.dtd">
<svg version="1.1" id="Layer_1" xmlns="http://www.w3.org/2000/svg" xmlns:xlink="http://www.w3.org/1999/xlink" x="0px" y="0px"
	 width="648px" height="340px" viewBox="0 0 648 340" enable-background="new 0 0 648 340" xml:space="preserve">
<g>
	<g>
		<path fill="#333741" d="M52.888,27.36c0,8.324,7.582,15.075,16.933,15.075h57.207c9.354,0,16.935-6.751,16.935-15.075v-9.169
			c0-8.326-7.582-15.075-16.935-15.075H69.821c-9.352,0-16.933,6.75-16.933,15.075V27.36z"/>
	</g>
	<g>
		<path fill="#3A3F4A" d="M84.016,184.74c0,8.326,6.749,15.076,15.075,15.076h50.928c8.325,0,15.076-6.75,15.076-15.076v-9.166
			c0-8.327-6.75-15.075-15.076-15.075H99.09c-8.326,0-15.075,6.749-15.075,15.075L84.016,184.74L84.016,184.74z"/>
	</g>
	<g>
		<path fill="#3A3F4A" d="M190.8,27.36c0,8.326,6.749,15.075,15.074,15.075h50.929c8.326,0,15.075-6.75,15.075-15.075v-9.169
			c0-8.324-6.749-15.075-15.075-15.075h-50.929c-8.325,0-15.074,6.751-15.074,15.075V27.36z"/>
	</g>
	<g>
		<g>
			<g>
				<g>
					<g>
						<path fill="#282D36" d="M456.109,250.746V95.719c0-10.406-8.438-18.845-18.854-18.845h-266.75
							c-10.409,0-18.847,8.439-18.847,18.845v155.027c0,0.227,0.023,32.984,0.031,33.22H456.08
							C456.08,283.73,456.109,250.973,456.109,250.746z"/>
					</g>
					<rect x="173.296" y="97.822" fill="#3F4450" width="259.771" height="167.588"/>
					<g>
						<path fill="#FFFFFF" d="M125.821,288.038c0,12.188,9.877,22.058,22.051,22.058h312.022c12.175,0,22.045-9.869,22.045-22.058
							v-4.072H125.821V288.038z"/>
					</g>
					<path fill="#C5C6C8" d="M326.285,297.859c0,1.315-1.266,2.365-2.819,2.365h-40.579c-1.55,0-2.803-1.05-2.803-2.365l0,0
						c0-1.293,1.253-2.344,2.803-2.344h40.579C325.021,295.518,326.285,296.566,326.285,297.859L326.285,297.859z"/>
				</g>
			</g>
		</g>
		<g>
			<path fill="#3A3F4A" d="M433.066,98.243v-0.42H173.296v145.682C210.093,171.102,309.185,115.15,433.066,98.243z"/>
		</g>
	</g>
	<g>
		<g>
			<g>
				<path fill="#2B2F37" d="M582.749,3.46c0,0-17.169,1.458-17.169,11.994h33.196C598.776,15.455,599.565,3.46,582.749,3.46z"/>
				<path fill="#333741" d="M582.749,3.46c0,0-166.568,0-185.89,0c-19.322,0-18.461,11.994-18.461,11.994H565.58
					C565.58,4.919,582.749,3.46,582.749,3.46z"/>
			</g>
			<rect x="377.969" y="15.455" fill="#333741" width="187.174" height="267.995"/>
			<g>
				<path fill="#2B2F37" d="M360.794,295.441c0,0,17.175-1.455,17.175-11.992H344.77C344.77,283.449,343.98,295.441,360.794,295.441
					z"/>
				<path fill="#333741" d="M360.794,295.441c0,0,166.571,0,185.89,0c19.321,0,18.459-11.992,18.459-11.992H377.969
					C377.969,293.986,360.794,295.441,360.794,295.441z"/>
			</g>
		</g>
		<g>
			<g>
				<path fill="#F5876E" d="M503.428,246.354h-17.334c-0.921,0-1.664-0.629-1.664-1.404c0-0.779,0.743-1.41,1.664-1.41h17.334
					c0.915,0,1.659,0.631,1.659,1.41C505.087,245.725,504.343,246.354,503.428,246.354z"/>
			</g>
			<g>
				<path fill="#2C3039" d="M532.548,246.354h-19.563c-0.92,0-1.663-0.629-1.663-1.404c0-0.779,0.743-1.41,1.663-1.41h19.563
					c0.92,0,1.661,0.631,1.661,1.41C534.209,245.725,533.468,246.354,532.548,246.354z"/>
			</g>
			<g>
				<path fill="#2C3039" d="M552.567,257.91h-66.475c-0.921,0-1.664-0.628-1.664-1.406c0-0.777,0.743-1.406,1.664-1.406h66.475
					c0.921,0,1.663,0.629,1.663,1.406C554.23,257.282,553.488,257.91,552.567,257.91z"/>
			</g>
			<g>
				<path fill="#03B4AC" d="M519.332,270.23h-33.238c-0.921,0-1.664-0.629-1.664-1.408c0-0.775,0.743-1.402,1.664-1.402h33.238
					c0.916,0,1.664,0.627,1.664,1.402C520.996,269.604,520.248,270.23,519.332,270.23z"/>
			</g>
			<g>
				<path fill="#F5876E" d="M539.372,270.23h-10.01c-0.919,0-1.666-0.629-1.666-1.408c0-0.775,0.747-1.402,1.666-1.402h10.01
					c0.92,0,1.664,0.627,1.664,1.402C541.036,269.604,540.292,270.23,539.372,270.23z"/>
			</g>
			<g>
				<path fill="#2C3039" d="M447.284,268.441h17.337c0.919,0,1.662,0.629,1.662,1.404c0,0.779-0.743,1.407-1.662,1.407h-17.337
					c-0.915,0-1.656-0.628-1.656-1.407C445.628,269.07,446.369,268.441,447.284,268.441z"/>
			</g>
			<g>
				<path fill="#F5876E" d="M418.167,268.441h19.565c0.915,0,1.662,0.629,1.662,1.404c0,0.779-0.747,1.407-1.662,1.407h-19.565
					c-0.917,0-1.66-0.628-1.66-1.407C416.507,269.07,417.25,268.441,418.167,268.441z"/>
			</g>
			<g>
				<path fill="#03B4AC" d="M398.145,256.885h66.478c0.919,0,1.662,0.631,1.662,1.408c0,0.775-0.743,1.406-1.662,1.406h-66.478
					c-0.914,0-1.662-0.631-1.662-1.406C396.481,257.516,397.229,256.885,398.145,256.885z"/>
			</g>
			<g>
				<path fill="#2C3039" d="M431.381,244.564h33.24c0.919,0,1.662,0.629,1.662,1.406c0,0.778-0.743,1.407-1.662,1.407h-33.24
					c-0.914,0-1.66-0.629-1.66-1.407C429.721,245.193,430.467,244.564,431.381,244.564z"/>
			</g>
			<g>
				<path fill="#2C3039" d="M411.344,244.564h10.007c0.921,0,1.664,0.629,1.664,1.406c0,0.778-0.743,1.407-1.664,1.407h-10.007
					c-0.921,0-1.666-0.629-1.666-1.407C409.678,245.193,410.423,244.564,411.344,244.564z"/>
			</g>
			<g>
				<path fill="#F5876E" d="M459.295,171.261h-54.862c-0.918,0-1.665-0.629-1.665-1.413c0-0.774,0.747-1.404,1.665-1.404h54.862
					c0.917,0,1.662,0.63,1.662,1.404C460.957,170.632,460.212,171.261,459.295,171.261z"/>
			</g>
			<g>
				<path fill="#2C3039" d="M540.284,171.261h-72.118c-0.919,0-1.667-0.629-1.667-1.413c0-0.774,0.748-1.404,1.667-1.404h72.118
					c0.921,0,1.664,0.63,1.664,1.404C541.948,170.632,541.205,171.261,540.284,171.261z"/>
			</g>
			<g>
				<path fill="#2C3039" d="M494.781,187.816H390.547c-0.922,0-1.663-0.629-1.663-1.412c0-0.774,0.741-1.405,1.663-1.405h104.234
					c0.92,0,1.664,0.631,1.664,1.405C496.445,187.188,495.701,187.816,494.781,187.816z"/>
			</g>
			<g>
				<path fill="#03B4AC" d="M552.567,187.816h-48.345c-0.92,0-1.659-0.629-1.659-1.412c0-0.774,0.739-1.405,1.659-1.405h48.345
					c0.921,0,1.663,0.631,1.663,1.405C554.23,187.188,553.488,187.816,552.567,187.816z"/>
			</g>
			<g>
				<path fill="#2C3039" d="M429.721,206.305h-39.174c-0.922,0-1.663-0.633-1.663-1.408c0-0.779,0.741-1.406,1.663-1.406h39.174
					c0.915,0,1.66,0.627,1.66,1.406C431.381,205.672,430.636,206.305,429.721,206.305z"/>
			</g>
			<g>
				<path fill="#F5876E" d="M514.349,206.305h-73.707c-0.92,0-1.663-0.633-1.663-1.408c0-0.779,0.743-1.406,1.663-1.406h73.707
					c0.919,0,1.663,0.627,1.663,1.406C516.012,205.672,515.268,206.305,514.349,206.305z"/>
			</g>
			<g>
				<path fill="#2C3039" d="M537.554,206.305H523.45c-0.922,0-1.667-0.633-1.667-1.408c0-0.779,0.745-1.406,1.667-1.406h14.104
					c0.917,0,1.667,0.627,1.667,1.406C539.221,205.672,538.471,206.305,537.554,206.305z"/>
			</g>
			<g>
				<path fill="#F5876E" d="M459.295,34.56h-54.862c-0.918,0-1.665-0.628-1.665-1.403c0-0.782,0.747-1.41,1.665-1.41h54.862
					c0.917,0,1.662,0.628,1.662,1.41C460.957,33.932,460.212,34.56,459.295,34.56z"/>
			</g>
			<g>
				<path fill="#2C3039" d="M540.284,34.56h-72.12c-0.921,0-1.665-0.628-1.665-1.403c0-0.782,0.744-1.41,1.665-1.41h72.12
					c0.92,0,1.661,0.628,1.661,1.41C541.945,33.932,541.204,34.56,540.284,34.56z"/>
			</g>
			<g>
				<path fill="#2C3039" d="M494.778,51.119H390.547c-0.922,0-1.666-0.629-1.666-1.409c0-0.778,0.744-1.407,1.666-1.407h104.231
					c0.921,0,1.663,0.628,1.663,1.407C496.441,50.49,495.699,51.119,494.778,51.119z"/>
			</g>
			<g>
				<path fill="#03B4AC" d="M552.567,51.119h-48.345c-0.92,0-1.663-0.629-1.663-1.409c0-0.778,0.743-1.407,1.663-1.407h48.345
					c0.921,0,1.663,0.628,1.663,1.407C554.23,50.49,553.488,51.119,552.567,51.119z"/>
			</g>
			<g>
				<path fill="#2C3039" d="M429.721,69.606h-39.174c-0.922,0-1.666-0.63-1.666-1.409c0-0.777,0.744-1.405,1.666-1.405h39.174
					c0.913,0,1.657,0.628,1.657,1.405C431.378,68.976,430.634,69.606,429.721,69.606z"/>
			</g>
			<g>
				<path fill="#F5876E" d="M514.346,69.606h-73.708c-0.92,0-1.663-0.63-1.663-1.409c0-0.777,0.743-1.405,1.663-1.405h73.708
					c0.922,0,1.664,0.628,1.664,1.405C516.01,68.976,515.268,69.606,514.346,69.606z"/>
			</g>
			<g>
				<path fill="#2C3039" d="M537.554,69.606H523.45c-0.923,0-1.667-0.63-1.667-1.409c0-0.777,0.744-1.405,1.667-1.405h14.104
					c0.916,0,1.657,0.628,1.657,1.405C539.211,68.976,538.47,69.606,537.554,69.606z"/>
			</g>
			<g>
				<path fill="#03B4AC" d="M399.212,224.79h-8.665c-0.922,0-1.663-0.632-1.663-1.41s0.741-1.407,1.663-1.407h8.665
					c0.918,0,1.663,0.629,1.663,1.407S400.13,224.79,399.212,224.79z"/>
			</g>
			<g>
				<path fill="#2C3039" d="M496.604,224.79h-86.471c-0.917,0-1.662-0.632-1.662-1.41s0.745-1.407,1.662-1.407h86.471
					c0.919,0,1.663,0.629,1.663,1.407S497.521,224.79,496.604,224.79z"/>
			</g>
			<g>
				<path fill="#F5876E" d="M552.567,224.79h-45.499c-0.921,0-1.665-0.632-1.665-1.41s0.744-1.407,1.665-1.407h45.499
					c0.921,0,1.663,0.629,1.663,1.407S553.488,224.79,552.567,224.79z"/>
			</g>
			<g>
				<path fill="#2C3039" d="M515.896,147.26h22.784c0.916,0,1.66,0.631,1.66,1.408c0,0.776-0.744,1.409-1.66,1.409h-22.784
					c-0.922,0-1.662-0.632-1.662-1.409S514.976,147.26,515.896,147.26z"/>
			</g>
			<g>
				<path fill="#03B4AC" d="M402.831,147.26h103.286c0.917,0,1.66,0.631,1.66,1.408c0,0.776-0.743,1.409-1.66,1.409H402.831
					c-0.919,0-1.664-0.632-1.664-1.409S401.912,147.26,402.831,147.26z"/>
			</g>
			<g>
				<path fill="#F5876E" d="M408.991,113.105h-16.619c-0.922,0-1.67-0.633-1.67-1.407c0-0.778,0.748-1.41,1.67-1.41h16.619
					c0.91,0,1.655,0.632,1.655,1.41C410.646,112.472,409.901,113.105,408.991,113.105z"/>
			</g>
			<g>
				<path fill="#2C3039" d="M484.321,113.105h-66.673c-0.917,0-1.665-0.633-1.665-1.407c0-0.778,0.748-1.41,1.665-1.41h66.673
					c0.917,0,1.662,0.632,1.662,1.41C485.983,112.472,485.238,113.105,484.321,113.105z"/>
			</g>
			<g>
				<path fill="#03B4AC" d="M552.567,113.105h-55.964c-0.919,0-1.658-0.633-1.658-1.407c0-0.778,0.739-1.41,1.658-1.41h55.964
					c0.921,0,1.663,0.632,1.663,1.41C554.23,112.472,553.488,113.105,552.567,113.105z"/>
			</g>
			<g>
				<path fill="#2C3039" d="M521.628,132.743H392.372c-0.922,0-1.67-0.63-1.67-1.409c0-0.773,0.748-1.405,1.67-1.405h129.256
					c0.92,0,1.664,0.632,1.664,1.405C523.292,132.113,522.548,132.743,521.628,132.743z"/>
			</g>
			<g>
				<path fill="#F5876E" d="M552.567,132.743h-20.926c-0.919,0-1.659-0.63-1.659-1.409c0-0.773,0.74-1.405,1.659-1.405h20.926
					c0.921,0,1.663,0.632,1.663,1.405C554.23,132.113,553.488,132.743,552.567,132.743z"/>
			</g>
			<g>
				<path fill="#F5876E" d="M523.404,89.882h29.163c0.921,0,1.663,0.628,1.663,1.407c0,0.775-0.742,1.405-1.663,1.405h-29.163
					c-0.916,0-1.664-0.63-1.664-1.405C521.74,90.511,522.488,89.882,523.404,89.882z"/>
			</g>
			<g>
				<path fill="#03B4AC" d="M392.367,89.882h121.023c0.925,0,1.664,0.628,1.664,1.407c0,0.775-0.739,1.405-1.664,1.405H392.367
					c-0.917,0-1.665-0.63-1.665-1.405C390.702,90.511,391.45,89.882,392.367,89.882z"/>
			</g>
		</g>
	</g>
	<g>
		<path fill="#333741" d="M9.989,115.385c0,8.326,6.751,15.073,15.075,15.073h50.923c8.327,0,15.076-6.748,15.076-15.073v-9.167
			c0-8.326-6.75-15.075-15.076-15.075H25.064c-8.324,0-15.075,6.75-15.075,15.075V115.385z"/>
		<g>
			<path fill="#03B4AC" d="M34.806,112.58h-4.098v4.265h-2.733v-14.491c2.278,0,4.556-0.02,6.832-0.02
				C41.886,102.333,41.906,112.58,34.806,112.58z M30.708,110.075h4.098c3.501,0,3.478-5.134,0-5.134h-4.098V110.075z"/>
			<path fill="#03B4AC" d="M53.4,116.866v-5.859h-7.124v5.859h-2.728v-14.493h2.728v6.109H53.4v-6.109h2.712v14.493H53.4z"/>
			<path fill="#03B4AC" d="M67.064,112.58h-4.096v4.265h-2.734v-14.491c2.277,0,4.555-0.02,6.831-0.02
				C74.145,102.333,74.167,112.58,67.064,112.58z M62.968,110.075h4.096c3.499,0,3.48-5.134,0-5.134h-4.096V110.075L62.968,110.075z
				"/>
		</g>
	</g>
	<g>
		<path fill="#333741" d="M107.925,93.467c0,8.326,8.248,15.073,18.421,15.073h62.234c10.173,0,18.422-6.748,18.422-15.073V84.3
			c0-8.328-8.249-15.076-18.422-15.076h-62.234c-10.173,0-18.421,6.748-18.421,15.076V93.467z"/>
	</g>
	<g>
		<rect x="586.788" y="49.881" fill="#FFFFFF" width="34.139" height="221.235"/>
		<g>
			<g>
				<rect x="586.788" y="259.736" fill="#C5C6C8" width="17.812" height="3.289"/>
			</g>
			<g>
				<rect x="586.788" y="220.646" fill="#C5C6C8" width="17.812" height="3.295"/>
			</g>
			<g>
				<rect x="586.788" y="200.611" fill="#C5C6C8" width="17.812" height="3.295"/>
			</g>
			<g>
				<rect x="586.788" y="180.257" fill="#C5C6C8" width="17.812" height="3.302"/>
			</g>
			<g>
				<rect x="586.788" y="160.458" fill="#C5C6C8" width="18.806" height="3.3"/>
			</g>
			<g>
				<rect x="586.788" y="141.786" fill="#C5C6C8" width="18.806" height="3.299"/>
			</g>
			<g>
				<rect x="586.788" y="121.13" fill="#C5C6C8" width="18.806" height="3.304"/>
			</g>
			<g>
				<rect x="586.788" y="240.21" fill="#C5C6C8" width="17.812" height="3.3"/>
			</g>
			<g>
				<rect x="586.788" y="249.783" fill="#C5C6C8" width="8.906" height="3.302"/>
			</g>
			<g>
				<rect x="586.788" y="230.225" fill="#C5C6C8" width="8.906" height="3.303"/>
			</g>
			<g>
				<rect x="586.788" y="211.027" fill="#C5C6C8" width="8.906" height="3.298"/>
			</g>
			<g>
				<rect x="586.788" y="190.709" fill="#C5C6C8" width="8.906" height="3.302"/>
			</g>
			<g>
				<rect x="586.788" y="171.182" fill="#C5C6C8" width="8.906" height="3.305"/>
			</g>
			<g>
				<rect x="586.788" y="151.389" fill="#C5C6C8" width="8.906" height="3.297"/>
			</g>
			<g>
				<rect x="586.788" y="131.03" fill="#C5C6C8" width="8.906" height="3.302"/>
			</g>
		</g>
		<g>
			<g>
				<rect x="586.788" y="106.984" fill="#C5C6C8" width="17.812" height="3.301"/>
			</g>
			<g>
				<rect x="586.788" y="67.898" fill="#C5C6C8" width="17.812" height="3.298"/>
			</g>
			<g>
				<rect x="586.788" y="87.461" fill="#C5C6C8" width="17.812" height="3.302"/>
			</g>
			<g>
				<rect x="586.788" y="97.037" fill="#C5C6C8" width="8.906" height="3.301"/>
			</g>
			<g>
				<rect x="586.788" y="77.479" fill="#C5C6C8" width="8.906" height="3.301"/>
			</g>
			<g>
				<rect x="586.788" y="58.284" fill="#C5C6C8" width="8.906" height="3.297"/>
			</g>
		</g>
		<rect x="617.711" y="49.915" fill="#C5C6C8" width="3.216" height="221.202"/>
	</g>
	<g>
		<g>
			<g>
				<rect x="631.26" y="98.769" fill="#2E323C" width="3.856" height="153.377"/>
				<rect x="635.116" y="98.769" fill="#30353F" width="4.026" height="153.377"/>
				<rect x="639.144" y="98.769" fill="#333741" width="3.854" height="153.377"/>
			</g>
			<g>
				<path fill="#2E323C" d="M639.423,81.591l-2.295-11.021l-2.294,11.021C636.33,82.35,637.926,82.35,639.423,81.591z"/>
				<path fill="#FFFFFF" d="M634.834,81.591l-3.574,17.177h11.738l-3.575-17.177C637.926,82.35,636.33,82.35,634.834,81.591z"/>
			</g>
			<rect x="631.26" y="252.146" fill="#FFFFFF" width="11.738" height="4.205"/>
			<rect x="631.26" y="256.352" fill="#333741" width="11.738" height="15.596"/>
		</g>
		<rect x="631.26" y="256.352" fill="#2E323C" width="3.574" height="15.596"/>
		<rect x="631.26" y="252.146" fill="#F2F2F2" width="3.574" height="4.205"/>
	</g>
	<g>
		<g>
			<g>
				<path fill="#2C3039" d="M598.359,311.018l-3.609-7.729c5.404-2.539,19.439-11.355,19.439-21.443
					c0-3.395-1.164-4.352-1.553-4.664c-2.723-2.234-9.343-0.899-11.838-0.396c-1.142,0.227-1.832,0.365-2.536,0.365v-8.53
					c-0.075-0.005-0.164,0-0.274,0.01c0.252-0.028,0.639-0.114,1.131-0.212c4.244-0.852,13.076-2.627,18.927,2.165
					c3.104,2.543,4.676,6.328,4.676,11.265C622.722,299.432,599.359,310.551,598.359,311.018z"/>
			</g>
			<g>
				<g>
					<g>
						<path fill="#333741" d="M536.433,260.497c-0.14,0.635-0.228,1.285-0.228,1.966v55.299c0,4.89,3.964,8.85,8.851,8.85h47.188
							c4.89,0,8.853-3.96,8.853-8.85v-55.299c0-0.681-0.083-1.331-0.228-1.966H536.433z"/>
					</g>
					<g>
						<path fill="#2F333D" d="M536.433,260.497c-0.14,0.635-0.228,1.285-0.228,1.966v55.299c0,4.89,3.964,8.85,8.851,8.85h2.208
							v-66.113L536.433,260.497L536.433,260.497z"/>
					</g>
				</g>
				<path fill="#282D36" d="M605.516,259.511c0,2.445-1.979,4.429-4.421,4.429h-64.89c-2.443,0-4.424-1.982-4.424-4.429l0,0
					c0-2.44,1.979-4.418,4.424-4.418h64.89C603.535,255.093,605.516,257.068,605.516,259.511L605.516,259.511z"/>
				<rect x="536.205" y="263.939" fill="#282D36" width="64.89" height="3.438"/>
			</g>
		</g>
		<path opacity="0.1" fill="#FFFFFF" enable-background="new    " d="M630.12,168.145h-82.927c-3.871,0-7.01,4.123-7.01,9.208
			c0,1.375,0.239,2.684,0.653,3.855h-12.879c-4.229,0-7.65,4.498-7.65,10.05c0,5.554,3.423,10.052,7.65,10.052h38.384
			c-0.003,0.117-0.011,0.236-0.011,0.356c0,1.919,0.528,3.672,1.403,5.026H553.29c-3.36,0-6.082,3.576-6.082,7.99
			c0,4.409,2.722,7.985,6.082,7.985h7.844c-0.332,0.804-0.541,1.703-0.541,2.681c0,1.396,0.408,2.658,1.052,3.635h-6.933
			c-2.546,0-4.614,2.714-4.614,6.063c0,2.457,1.117,4.561,2.721,5.512c-0.7,0.961-1.16,2.534-1.16,4.325
			c0,2.927,1.224,5.304,2.732,5.304h9.202c1.516,0,2.739-2.377,2.739-5.304c0-1.481-0.314-2.819-0.818-3.78h12.438
			c2.547,0,4.608-2.709,4.608-6.057c0-1.6-0.479-3.044-1.246-4.122c2.295-0.079,4.139-2.538,4.139-5.575
			c0-0.977-0.206-1.877-0.542-2.68h7.846c3.36,0,6.082-3.576,6.082-7.986c0-2.01-0.569-3.834-1.494-5.235h8.961
			c3.269,0,5.918-3.481,5.918-7.78c0-4.29-2.649-7.775-5.918-7.775h-10.928c0.175-0.838,0.273-1.724,0.273-2.633
			c0-1.697-0.322-3.297-0.888-4.701h35.356c3.87,0,7.008-4.117,7.008-9.205C637.128,172.268,633.99,168.145,630.12,168.145z"/>
	</g>
	<g>
		<g>
			<rect x="4.668" y="258.229" fill="#333741" width="230.628" height="75.336"/>
			<g>
				<path fill="#2C313A" d="M235.296,254.512c0-2.195-1.778-3.971-3.973-3.971H8.641c-2.193,0-3.973,1.775-3.973,3.971v3.719
					h230.628V254.512z"/>
			</g>
			<rect x="4.668" y="333.564" fill="#282D36" width="230.628" height="3.528"/>
			<g>
				<path fill="#2C313A" d="M34.655,290.354c-0.006,0-0.007,0.002-0.01,0.002h-2.531v9.994h2.541h12.083h2.543v-9.994h-2.535
					c-0.003,0-0.005-0.002-0.009-0.002H34.655z"/>
				<polygon fill="#2C313A" points="29.567,273.718 32.115,273.718 32.115,271.177 32.115,268.813 32.115,266.271 29.567,266.271 
					15.524,266.271 12.982,266.271 12.982,268.813 12.982,271.177 12.982,273.718 15.524,273.718 				"/>
				<polygon fill="#2C313A" points="52.59,273.718 55.132,273.718 55.132,271.177 55.132,268.813 55.132,266.271 52.59,266.271 
					38.546,266.271 36.002,266.271 36.002,268.813 36.002,271.177 36.002,273.718 38.546,273.718 				"/>
				<polygon fill="#2C313A" points="76.34,273.718 78.884,273.718 78.884,271.177 78.884,268.813 78.884,265.295 59.756,265.295 
					59.756,268.813 59.756,271.177 59.756,273.718 62.298,273.718 				"/>
				<polygon fill="#2C313A" points="99.364,273.718 101.907,273.718 101.907,271.177 101.907,268.813 101.907,265.295 
					82.776,265.295 82.776,268.813 82.776,271.177 82.776,273.718 85.319,273.718 				"/>
				<polygon fill="#2C313A" points="123.085,273.718 125.628,273.718 125.628,271.177 125.628,268.813 125.628,265.295 
					106.501,265.295 106.501,268.813 106.501,271.177 106.501,273.718 109.042,273.718 				"/>
				<polygon fill="#2C313A" points="146.105,273.718 148.649,273.718 148.649,271.177 148.649,268.813 148.649,265.295 
					129.519,265.295 129.519,268.813 129.519,271.177 129.519,273.718 132.063,273.718 				"/>
				<polygon fill="#2C313A" points="169.858,273.718 172.401,273.718 172.401,271.177 172.401,268.813 172.401,265.295 
					153.271,265.295 153.271,268.813 153.271,271.177 153.271,273.718 155.816,273.718 				"/>
				<polygon fill="#2C313A" points="192.882,273.718 195.423,273.718 195.423,265.295 176.294,265.295 176.294,273.718 
					178.841,273.718 				"/>
				<polygon fill="#2C313A" points="209.158,273.718 211.703,273.718 211.703,271.177 211.703,268.813 211.703,265.295 
					199.91,265.295 199.91,268.813 199.91,271.177 199.91,273.718 202.454,273.718 				"/>
				<polygon fill="#2C313A" points="215.191,265.295 215.191,268.813 215.191,271.177 215.191,273.718 217.735,273.718 
					224.438,273.718 226.985,273.718 226.985,271.177 226.985,268.813 226.985,265.295 				"/>
				<polygon fill="#2C313A" points="203.987,287.409 203.987,284.867 203.987,279.963 203.987,277.417 201.442,277.417 
					189.357,277.417 186.817,277.417 186.817,279.963 186.817,284.867 186.817,287.409 189.357,287.409 201.442,287.409 				"/>
				<polygon fill="#2C313A" points="181.774,287.409 181.774,277.417 179.227,277.417 167.147,277.417 164.603,277.417 
					164.603,279.963 164.603,284.867 164.603,287.409 167.147,287.409 179.227,287.409 				"/>
				<polygon fill="#2C313A" points="156.603,287.409 159.144,287.409 159.144,284.867 159.144,279.963 159.144,277.417 
					156.603,277.417 144.521,277.417 141.976,277.417 141.976,279.963 141.976,284.867 141.976,287.409 144.521,287.409 				"/>
				<polygon fill="#2C313A" points="133.115,287.409 135.662,287.409 135.662,284.875 135.663,284.867 135.663,279.963 
					135.662,279.952 135.662,277.417 133.115,277.417 121.036,277.417 118.491,277.417 118.491,279.963 118.491,284.867 
					118.491,287.409 121.036,287.409 				"/>
				<polygon fill="#2C313A" points="110.49,287.409 113.035,287.409 113.035,277.417 110.49,277.417 98.409,277.417 95.865,277.417 
					95.865,279.963 95.865,284.867 95.865,287.409 98.409,287.409 				"/>
				<polygon fill="#2C313A" points="87.325,287.409 89.873,287.409 89.873,284.867 89.873,279.963 89.873,277.417 87.325,277.417 
					75.245,277.417 72.704,277.417 72.704,287.409 75.245,287.409 				"/>
				<polygon fill="#2C313A" points="52.618,287.409 64.702,287.409 67.247,287.409 67.247,284.867 67.247,279.963 67.247,277.417 
					64.702,277.417 52.618,277.417 50.078,277.417 50.078,279.952 50.076,279.963 50.076,284.867 50.078,284.875 50.078,287.409 
									"/>
				<polygon fill="#2C313A" points="51.732,313.536 51.732,303.545 49.192,303.545 37.106,303.545 34.565,303.545 34.565,313.536 
					37.106,313.536 49.192,313.536 				"/>
				<path fill="#2C313A" d="M59.733,313.536h12.084h2.693v-9.991h-2.693H59.733H57.34v1.805c-0.074,0.238-0.148,0.479-0.148,0.741
					v4.901c0,0.265,0.074,0.504,0.148,0.744v1.8H59.733L59.733,313.536z"/>
				<polygon fill="#2C313A" points="69.365,300.35 71.909,300.35 71.909,290.354 69.373,290.354 69.365,290.354 57.283,290.354 
					57.273,290.354 54.739,290.354 54.739,300.35 57.283,300.35 				"/>
				<polygon fill="#2C313A" points="92.528,300.35 95.07,300.35 95.07,290.354 92.538,290.354 92.528,290.354 80.444,290.354 
					80.435,290.354 77.899,290.354 77.899,300.35 80.444,300.35 				"/>
				<polygon fill="#2C313A" points="94.974,313.536 97.521,313.536 97.521,310.992 97.521,306.091 97.521,303.545 94.974,303.545 
					82.898,303.545 80.352,303.545 80.352,306.091 80.352,310.992 80.352,313.536 82.898,313.536 				"/>
				<path fill="#2C313A" d="M115.149,300.35h2.548v-2.545v-4.908v-2.541h-2.538c-0.006,0-0.007-0.002-0.01-0.002H103.07
					c-0.006,0-0.007,0.002-0.012,0.002h-2.534v2.541v4.908v2.545h2.546H115.149z"/>
				<path fill="#2C313A" d="M117.603,313.536h2.542v-2.533c0-0.004,0.005-0.005,0.005-0.011v-4.901c0-0.004-0.005-0.005-0.005-0.011
					v-2.535h-2.542h-12.084h-2.543v2.546v4.901v2.544h2.543H117.603L117.603,313.536z"/>
				<path fill="#2C313A" d="M138.636,300.35h2.546v-9.994h-2.537c-0.004,0-0.005-0.002-0.009-0.002h-12.083
					c-0.003,0-0.006,0.002-0.012,0.002h-2.53v9.994h2.542H138.636z"/>
				<polygon fill="#2C313A" points="141.09,313.536 143.633,313.536 143.633,310.992 143.633,306.091 143.633,303.545 
					141.09,303.545 129.007,303.545 126.463,303.545 126.463,306.091 126.463,310.992 126.463,313.536 129.007,313.536 				"/>
				<polygon fill="#2C313A" points="161.26,300.35 163.808,300.35 163.808,290.354 161.269,290.354 161.26,290.354 149.18,290.354 
					149.17,290.354 146.636,290.354 146.636,292.896 146.636,297.805 146.636,300.35 149.18,300.35 				"/>
				<path fill="#2C313A" d="M166.257,303.545h-2.541h-12.085h-2.544v2.546v4.901v2.544h2.544h12.085h2.541v-2.533
					c0-0.004,0.004-0.005,0.004-0.011v-4.901c0-0.004-0.004-0.005-0.004-0.011V303.545z"/>
				<path fill="#2C313A" d="M183.479,300.35h2.542v-9.994h-2.534c-0.003,0-0.005-0.002-0.008-0.002h-12.084
					c-0.004,0-0.007,0.002-0.012,0.002h-2.532v2.541v4.908v2.545h2.544H183.479z"/>
				<polygon fill="#2C313A" points="173.846,303.545 171.305,303.545 171.305,313.536 173.846,313.536 185.928,313.536 
					188.475,313.536 188.475,303.545 185.928,303.545 				"/>
				<polygon fill="#2C313A" points="174.355,316.644 171.811,316.644 171.811,319.185 171.811,323.957 171.811,326.497 
					174.355,326.497 183.432,326.497 185.978,326.497 185.978,323.957 185.978,319.185 185.978,316.644 183.432,316.644 				"/>
				<polygon fill="#2C313A" points="194.094,316.644 191.554,316.644 191.554,319.185 191.554,323.957 191.554,326.497 
					194.094,326.497 203.174,326.497 205.717,326.497 205.717,323.957 205.717,319.185 205.717,316.644 203.174,316.644 				"/>
				<polygon fill="#2C313A" points="215.365,316.644 212.817,316.644 212.817,319.185 212.817,323.957 212.817,326.497 
					215.365,326.497 224.438,326.497 226.985,326.497 226.985,323.957 226.985,319.185 226.985,316.644 224.438,316.644 				"/>
				<path fill="#2C313A" d="M212.018,281.313h-2.504v2.347c-0.006,0.065-0.04,0.123-0.04,0.192v9.235h-14.916v2.687v8.158v0.821
					v4.158v2.545h2.543h12.412h5.677h9.247h2.547v-2.545v-4.979v-1.244v-18.836v-2.539h-2.547H212.018L212.018,281.313z"/>
				<polygon fill="#2C313A" points="43.024,287.826 45.568,287.826 45.568,285.284 45.568,279.963 45.568,277.417 43.024,277.417 
					15.524,277.417 12.982,277.417 12.982,279.963 12.982,285.284 12.982,287.826 15.524,287.826 				"/>
				<polygon fill="#2C313A" points="23.818,300.35 26.361,300.35 26.361,297.809 26.361,297.805 26.361,293.947 26.361,293.939 
					26.361,291.4 23.818,291.4 15.524,291.4 12.982,291.4 12.982,293.947 12.982,297.805 12.982,300.35 15.524,300.35 				"/>
				<polygon fill="#2C313A" points="28.057,313.536 30.599,313.536 30.599,310.992 30.599,307.138 30.599,304.593 28.057,304.593 
					15.524,304.593 12.982,304.593 12.982,307.138 12.982,310.992 12.982,313.536 15.524,313.536 				"/>
				<polygon fill="#2C313A" points="34.565,316.644 32.018,316.644 15.524,316.644 12.982,316.644 12.982,319.185 12.982,323.957 
					12.982,326.497 15.524,326.497 32.018,326.497 34.565,326.497 34.565,323.963 34.565,323.957 34.565,319.185 34.565,319.182 
									"/>
				<polygon fill="#2C313A" points="41.829,316.644 39.285,316.644 39.285,319.185 39.285,323.957 39.285,326.497 41.829,326.497 
					58.324,326.497 60.868,326.497 60.868,323.957 60.868,319.185 60.868,316.644 58.324,316.644 				"/>
				<polygon fill="#2C313A" points="68.468,316.644 65.924,316.644 65.924,319.185 65.924,323.957 65.924,326.497 68.468,326.497 
					163.512,326.497 166.055,326.497 166.055,323.957 166.055,319.185 166.055,316.644 163.512,316.644 				"/>
			</g>
		</g>
		<g>
			<path fill="#2C313A" d="M109.283,250.541h-3.825v-19.675c-0.007-0.065-0.334-4.976,2.946-8.507
				c2.103-2.269,5.122-3.414,8.973-3.414h34.281v3.824h-34.281c-2.743,0-4.821,0.738-6.171,2.192
				c-2.123,2.287-1.93,5.728-1.929,5.763L109.283,250.541z"/>
		</g>
	</g>
	<g>
		<path fill="#FFFFFF" d="M126.312,91.74h-3.688l-0.766,2.453h-2.383l3.836-11.375h2.336l3.82,11.375h-2.383L126.312,91.74z
			 M123.187,89.951h2.57l-1.258-4.008h-0.047L123.187,89.951z"/>
		<path fill="#FFFFFF" d="M140.557,94.193h-2.281l-4.586-7.672l-0.047,0.008v7.664h-2.281V82.818h2.281l4.586,7.664l0.047-0.008
			v-7.656h2.281V94.193z"/>
		<path fill="#FFFFFF" d="M152.169,92.639c-0.354,0.464-0.883,0.866-1.586,1.207c-0.703,0.341-1.609,0.512-2.719,0.512
			c-1.375,0-2.5-0.432-3.375-1.297c-0.875-0.864-1.313-1.987-1.313-3.367v-2.375c0-1.375,0.424-2.496,1.273-3.363
			c0.849-0.867,1.94-1.301,3.273-1.301c1.391,0,2.456,0.33,3.195,0.988c0.739,0.659,1.096,1.538,1.07,2.637l-0.016,0.047h-2.148
			c0-0.604-0.175-1.074-0.523-1.41c-0.349-0.336-0.857-0.504-1.523-0.504c-0.698,0-1.261,0.27-1.688,0.809
			c-0.427,0.539-0.641,1.233-0.641,2.082v2.391c0,0.859,0.219,1.56,0.656,2.102c0.438,0.542,1.023,0.813,1.758,0.813
			c0.542,0,0.97-0.055,1.285-0.164c0.315-0.109,0.559-0.247,0.73-0.414v-2.203h-2.188v-1.578h4.477V92.639z"/>
		<path fill="#FFFFFF" d="M163.922,82.818v7.445c0,1.281-0.425,2.284-1.273,3.008c-0.849,0.724-1.951,1.086-3.305,1.086
			c-1.349,0-2.444-0.362-3.285-1.086c-0.841-0.724-1.262-1.727-1.262-3.008v-7.445h2.289v7.445c0,0.761,0.203,1.341,0.609,1.742
			c0.406,0.401,0.956,0.602,1.648,0.602c0.703,0,1.26-0.2,1.672-0.602c0.411-0.401,0.617-0.981,0.617-1.742v-7.445H163.922z"/>
		<path fill="#FFFFFF" d="M168.98,92.443h5.094v1.75h-7.375V82.818h2.281V92.443z"/>
		<path fill="#FFFFFF" d="M182.468,91.74h-3.688l-0.766,2.453h-2.383l3.836-11.375h2.336l3.82,11.375h-2.383L182.468,91.74z
			 M179.343,89.951h2.57l-1.258-4.008h-0.047L179.343,89.951z"/>
		<path fill="#FFFFFF" d="M189.799,89.646v4.547h-2.281V82.818h3.938c1.297,0,2.311,0.296,3.043,0.887
			c0.731,0.591,1.098,1.416,1.098,2.473c0,0.583-0.155,1.087-0.465,1.512c-0.31,0.425-0.762,0.767-1.355,1.027
			c0.672,0.198,1.155,0.529,1.449,0.992c0.294,0.464,0.441,1.037,0.441,1.719v0.836c0,0.318,0.043,0.65,0.129,0.996
			c0.086,0.347,0.233,0.603,0.441,0.77v0.164h-2.352c-0.208-0.167-0.343-0.442-0.402-0.828c-0.06-0.385-0.09-0.758-0.09-1.117
			v-0.805c0-0.567-0.155-1.009-0.465-1.324c-0.31-0.315-0.749-0.473-1.316-0.473H189.799z M189.799,87.889h1.617
			c0.641,0,1.117-0.135,1.43-0.406c0.313-0.271,0.469-0.672,0.469-1.203c0-0.521-0.158-0.935-0.473-1.242
			c-0.315-0.307-0.777-0.461-1.387-0.461h-1.656V87.889z"/>
	</g>
</g>
<g>
	<path fill="#FFFFFF" d="M220.409,28.5h-2.281l-4.586-7.672l-0.047,0.008V28.5h-2.281V17.125h2.281l4.586,7.664l0.047-0.008v-7.656
		h2.281V28.5z"/>
	<path fill="#FFFFFF" d="M232.506,23.836c0,1.401-0.44,2.556-1.32,3.465c-0.88,0.909-2.026,1.363-3.438,1.363
		c-1.406,0-2.547-0.456-3.422-1.367c-0.875-0.911-1.313-2.065-1.313-3.461v-2.047c0-1.391,0.436-2.543,1.309-3.457
		c0.872-0.914,2.009-1.371,3.41-1.371c1.411,0,2.56,0.457,3.445,1.371c0.885,0.914,1.328,2.066,1.328,3.457V23.836z M230.232,21.773
		c0-0.885-0.222-1.612-0.664-2.18c-0.443-0.567-1.055-0.852-1.836-0.852c-0.771,0-1.371,0.284-1.801,0.852
		c-0.43,0.568-0.645,1.294-0.645,2.18v2.063c0,0.901,0.216,1.636,0.648,2.203c0.432,0.568,1.036,0.852,1.813,0.852
		c0.781,0,1.391-0.284,1.828-0.852c0.438-0.567,0.656-1.302,0.656-2.203V21.773z"/>
	<path fill="#FFFFFF" d="M235.111,28.5V17.125h3.969c1.391,0,2.536,0.444,3.438,1.332c0.901,0.888,1.352,2.027,1.352,3.418v1.883
		c0,1.396-0.451,2.535-1.352,3.418c-0.901,0.883-2.047,1.324-3.438,1.324H235.111z M237.392,18.883v7.867h1.688
		c0.75,0,1.354-0.28,1.813-0.84c0.458-0.56,0.688-1.277,0.688-2.152v-1.898c0-0.87-0.229-1.583-0.688-2.141
		c-0.458-0.557-1.063-0.836-1.813-0.836H237.392z"/>
	<path fill="#FFFFFF" d="M252.997,23.5h-4.219v3.25h5.016v1.75h-7.297V17.125h7.281v1.758h-5v2.859h4.219V23.5z"/>
</g>
<g>
	<path fill="#F5876E" d="M102.218,187.334h-2.759v-2.264h2.759V187.334z"/>
	<path fill="#F5876E" d="M117.085,187.334h-2.759l-5.547-8.684l-0.057,0.009v8.675h-2.759v-12.875h2.759l5.546,8.675l0.057-0.01
		v-8.665h2.759V187.334z"/>
	<path fill="#F5876E" d="M128.447,181.675h-5.103v3.679h6.066v1.98h-8.825v-12.875h8.806v1.989h-6.047v3.236h5.103V181.675z"/>
	<path fill="#F5876E" d="M141.906,176.448h-3.931v10.886h-2.759v-10.886h-3.874v-1.989h10.564V176.448z"/>
</g>
<g>
	<path fill="#FFFFFF" d="M65.829,25.288v4.547h-2.281V18.459h3.938c1.297,0,2.311,0.296,3.043,0.887
		c0.731,0.591,1.098,1.416,1.098,2.473c0,0.583-0.155,1.087-0.465,1.512c-0.31,0.425-0.762,0.767-1.355,1.027
		c0.672,0.198,1.155,0.529,1.449,0.992c0.294,0.464,0.441,1.037,0.441,1.719v0.836c0,0.318,0.043,0.65,0.129,0.996
		c0.086,0.347,0.233,0.603,0.441,0.77v0.164h-2.352c-0.208-0.167-0.343-0.442-0.402-0.828c-0.06-0.385-0.09-0.758-0.09-1.117v-0.805
		c0-0.567-0.155-1.009-0.465-1.324c-0.31-0.315-0.749-0.473-1.316-0.473H65.829z M65.829,23.53h1.617
		c0.641,0,1.117-0.135,1.43-0.406c0.313-0.271,0.469-0.672,0.469-1.203c0-0.521-0.158-0.935-0.473-1.242
		c-0.315-0.307-0.777-0.461-1.387-0.461h-1.656V23.53z"/>
	<path fill="#FFFFFF" d="M81.043,24.834h-4.219v3.25h5.016v1.75h-7.297V18.459h7.281v1.758h-5v2.859h4.219V24.834z"/>
	<path fill="#FFFFFF" d="M90.171,27.381h-3.688l-0.766,2.453h-2.383l3.836-11.375h2.336l3.82,11.375h-2.383L90.171,27.381z
		 M87.046,25.592h2.57l-1.258-4.008h-0.047L87.046,25.592z"/>
	<path fill="#FFFFFF" d="M103.667,26.069l0.016,0.047c0.021,1.214-0.349,2.164-1.109,2.852c-0.761,0.688-1.81,1.031-3.148,1.031
		c-1.365,0-2.466-0.438-3.305-1.316c-0.839-0.877-1.258-2.012-1.258-3.402v-2.258c0-1.385,0.409-2.52,1.227-3.402
		c0.817-0.883,1.891-1.324,3.219-1.324c1.385,0,2.469,0.339,3.25,1.016c0.781,0.677,1.161,1.63,1.141,2.859l-0.016,0.047h-2.219
		c0-0.729-0.176-1.272-0.527-1.629c-0.352-0.356-0.895-0.535-1.629-0.535c-0.683,0-1.215,0.275-1.598,0.824
		c-0.383,0.55-0.574,1.259-0.574,2.129v2.273c0,0.875,0.202,1.589,0.605,2.141c0.403,0.552,0.965,0.828,1.684,0.828
		c0.682,0,1.191-0.178,1.527-0.535c0.336-0.356,0.504-0.905,0.504-1.645H103.667z"/>
	<path fill="#FFFFFF" d="M113.818,20.217h-3.25v9.617h-2.281v-9.617h-3.203v-1.758h8.734V20.217z"/>
	<path fill="#FFFFFF" d="M120.399,18.459h2.273v7.852c0,1.125-0.345,2.021-1.035,2.688c-0.69,0.667-1.577,1-2.66,1
		c-1.203,0-2.156-0.297-2.859-0.891s-1.042-1.456-1.016-2.586l0.016-0.047h2.219c0,0.604,0.148,1.051,0.445,1.34
		s0.695,0.434,1.195,0.434c0.417,0,0.758-0.173,1.023-0.52c0.266-0.346,0.398-0.819,0.398-1.418V18.459z"/>
	<path fill="#FFFFFF" d="M131.48,26.866c0-0.438-0.152-0.789-0.457-1.055s-0.84-0.516-1.605-0.75
		c-1.313-0.396-2.309-0.862-2.988-1.398c-0.68-0.536-1.02-1.268-1.02-2.195c0-0.932,0.383-1.694,1.148-2.285
		c0.766-0.591,1.742-0.887,2.93-0.887c1.26,0,2.274,0.318,3.043,0.953c0.768,0.636,1.139,1.469,1.113,2.5l-0.016,0.047h-2.211
		c0-0.567-0.172-1.004-0.516-1.309s-0.826-0.457-1.445-0.457c-0.563,0-0.998,0.136-1.305,0.406
		c-0.308,0.271-0.461,0.617-0.461,1.039c0,0.386,0.167,0.702,0.5,0.949c0.333,0.248,0.909,0.509,1.727,0.785
		c1.25,0.354,2.203,0.816,2.859,1.387s0.984,1.322,0.984,2.254c0,0.974-0.38,1.742-1.141,2.305
		c-0.761,0.563-1.766,0.844-3.016,0.844c-1.224,0-2.275-0.305-3.152-0.914c-0.878-0.609-1.304-1.518-1.277-2.727l0.016-0.047h2.211
		c0,0.672,0.198,1.167,0.594,1.484c0.396,0.318,0.932,0.477,1.609,0.477c0.609,0,1.074-0.127,1.395-0.383
		C131.32,27.634,131.48,27.293,131.48,26.866z"/>
</g>
</svg>
