<svg width="439" height="440" viewBox="0 0 439 440" fill="none" xmlns="http://www.w3.org/2000/svg">
<g clip-path="url(#clip0)">
<path d="M113.646 38.5022C99.2709 59.1025 116.125 92.5036 94.7969 107.997C74.0322 123.085 48.5304 98.3585 28.95 111.344C-0.0625668 130.605 5.26413 218.735 47.6724 273.511C60.4365 289.974 71.1004 296.383 75.8218 315.007C85.9647 355.001 50.3253 378.773 57.1047 398.567C72.369 443.099 307.26 480.468 401.503 346.632C445.517 284.12 452.102 193.856 412.778 125.293C341.715 1.40693 145.901 -7.73119 113.646 38.5022Z" fill="#E5F8C6"/>
<path d="M309.696 292.415C331.982 292.562 360.395 289.574 387.597 277.253C394.539 274.091 437.437 254.682 432.374 235.093C430.589 228.2 424.357 227.114 421.81 217.939C418.794 207.073 425.61 201.645 430.331 188.101C433.147 180.022 441.385 156.37 427.247 143.275C418.788 135.454 402.719 131.749 390.481 134.611C372.538 138.827 366.369 156.291 356.442 186.061C347.641 212.453 349.899 218.93 343.236 237.828C338.288 251.873 328.971 271.182 309.696 292.415Z" fill="url(#paint0_linear)"/>
<g style="mix-blend-mode:soft-light" opacity="0.5">
<g style="mix-blend-mode:soft-light" opacity="0.5">
<path d="M253.702 304.604C240.366 304.54 227.095 302.735 214.226 299.234L214.494 298.217C238.885 304.715 262.613 305.268 285.025 299.856C314.88 292.642 340.782 274.734 362.005 246.629C384.111 217.355 395.602 184.349 401.35 161.815C405.329 146.221 404.56 128.956 399.07 110.496L400.076 110.195C405.624 128.84 406.392 146.295 402.371 162.073C396.581 184.702 385.054 217.85 362.841 247.267C341.472 275.572 315.375 293.611 285.273 300.884C274.934 303.372 264.336 304.621 253.702 304.604Z" fill="white"/>
</g>
<g style="mix-blend-mode:soft-light" opacity="0.5">
<path d="M386.259 206.831L385.965 206.468C381.361 200.365 377.538 193.71 374.585 186.658C369.911 175.644 365.332 158.753 370.048 140.846L371.064 141.115C362.71 172.856 383.744 201.841 386.491 205.43C433.663 174.679 433.194 139.555 431.921 129.484C431.889 129.21 431.868 129.036 431.868 128.957H432.921C432.921 129.015 432.921 129.141 432.968 129.331C434.263 139.576 434.758 175.407 386.649 206.557L386.259 206.831Z" fill="white"/>
</g>
<g style="mix-blend-mode:soft-light" opacity="0.5">
<path d="M380.8 248.353C374.738 248.336 368.685 247.876 362.689 246.977L362.41 246.935L362.289 246.677C362.157 246.408 349.419 219.015 352.214 181.777L355.03 144.25L356.083 144.329L353.267 181.856C350.635 216.896 361.857 243.13 363.131 245.976C379.069 248.284 402.028 248.664 421.461 237.544C433.141 230.862 438.062 223.073 438.11 222.994L439.005 223.552C438.805 223.879 433.931 231.605 422.04 238.424C413.545 243.304 400.081 248.353 380.8 248.353Z" fill="white"/>
</g>
</g>
<path d="M285.7 292.23C268.599 281.69 245.171 263.614 230.322 234.382C210.816 196.043 223.117 172.149 207.273 103.734C197.273 60.4729 189.83 30.3867 164.639 18.6189C144.88 9.40169 116.577 12.532 102.113 27.757C90.0808 40.4049 86.2069 62.9235 86.7595 78.3065C87.2069 90.849 90.6177 99.3231 84.9331 107.133C79.1432 115.117 70.6689 112.993 64.979 119.191C53.4414 131.754 67.8792 162.647 70.2426 167.638C96.2023 223.173 157.959 251.609 185.051 263.688C207.421 273.675 241.46 286.128 285.7 292.23Z" fill="#97C842"/>
<g style="mix-blend-mode:soft-light" opacity="0.5">
<g style="mix-blend-mode:soft-light" opacity="0.5">
<path d="M304.316 299.598C277.351 295.176 253.496 288.204 233.416 278.881C203.698 265.079 183.17 246.461 172.354 223.536C163.901 205.618 161.453 184.802 158.358 158.463C155.789 136.629 155.937 120.935 156.068 107.086C156.237 89.1362 156.368 74.9389 150.363 55.7141C144.262 36.1678 133.646 17.6544 118.818 0.695636L119.608 0C134.535 17.0694 145.22 35.7093 151.368 55.3979C157.421 74.8019 157.29 89.0519 157.116 107.096C156.99 120.909 156.842 136.571 159.4 158.336C162.611 185.608 164.927 205.313 173.301 223.088C184.002 245.781 204.356 264.236 233.858 277.927C253.86 287.208 277.614 294.148 304.484 298.559L304.316 299.598Z" fill="white"/>
</g>
<g style="mix-blend-mode:soft-light" opacity="0.5">
<path d="M157.174 142.958L156.895 142.431C137.43 105.926 111.728 85.8471 93.5902 75.4284C73.9573 64.1507 58.7509 61.4683 58.6035 61.4419L58.7772 60.3879C58.9299 60.3879 74.3204 63.1283 94.1166 74.5009C112.281 84.9354 137.988 104.998 157.537 141.382C159.969 139.548 171.185 130.637 181.086 115.169C191.334 99.1591 202.219 72.6301 195.887 37.2053L196.94 37.0156C203.34 72.804 192.329 99.5965 181.965 115.781C170.738 133.308 157.811 142.505 157.679 142.599L157.174 142.958Z" fill="white"/>
</g>
<g style="mix-blend-mode:soft-light" opacity="0.5">
<path d="M165.664 201.598L165.28 201.566C140.389 199.458 109.792 172.307 88.5063 149.921C74.0281 134.583 60.4784 118.393 47.9297 101.437L48.7824 100.82C61.3066 117.745 74.8299 133.905 89.28 149.214C110.334 171.348 140.494 198.167 164.991 200.496C166.296 197.472 175.849 175.691 189.435 155.554C204.067 133.858 245.365 118.981 245.807 118.833L246.16 119.824C245.749 119.971 204.767 134.733 190.335 156.129C175.802 177.63 165.907 201.008 165.801 201.245L165.664 201.598Z" fill="white"/>
</g>
<g style="mix-blend-mode:soft-light" opacity="0.5">
<path d="M211.41 275.508C198.408 275.482 185.422 274.591 172.538 272.841C145.142 269.121 105.165 259.608 70.3573 235.388L3.11035 188.611L3.71566 187.747L70.9573 234.513C105.597 258.612 145.378 268.082 172.654 271.787C198.545 275.302 218.368 274.422 223.042 274.143C214.883 264.578 210.436 253.764 209.82 241.996C209.294 232.326 211.399 221.997 215.957 211.288C223.737 193.101 236.269 179.942 236.395 179.811L237.153 180.543C237.027 180.67 224.616 193.718 216.915 211.731C212.404 222.271 210.373 232.452 210.873 241.959C211.494 253.817 216.089 264.683 224.526 274.259L225.221 275.044L224.168 275.134C224.079 275.134 219.373 275.508 211.41 275.508Z" fill="white"/>
</g>
</g>
<path d="M280.105 289.891C254.966 309.274 220.18 330.375 178.729 339.866C168.15 342.285 102.803 357.257 91.723 330.696C87.8227 321.342 93.9494 314.739 88.9491 302.144C83.0223 287.219 70.632 286.94 53.6255 275.657C43.4827 268.922 13.791 249.217 18.5703 222.172C21.4337 206.009 36.4664 187.954 52.7833 180.645C76.7377 169.931 98.7708 184.444 135.631 209.63C168.307 231.964 171.318 241.249 195.109 256.933C212.821 268.574 239.986 282.429 280.105 289.891Z" fill="url(#paint1_linear)"/>
<g style="mix-blend-mode:soft-light" opacity="0.5">
<g style="mix-blend-mode:soft-light" opacity="0.5">
<path d="M242.391 293.19C222.684 293.19 202.255 290.219 181.102 284.278C130.651 270.081 89.08 242.466 63.0887 221.797C44.9821 207.405 30.8706 186.979 21.1436 161.093L22.1068 160.734C31.7654 186.436 45.7927 206.71 63.7203 220.986C89.638 241.591 131.094 269.122 181.366 283.272C229.653 296.858 274.472 294.834 314.575 277.248C344.698 264.026 371.163 242.946 393.244 214.488L394.076 215.136C371.885 243.705 345.283 264.916 315.017 278.186C292.242 288.189 267.951 293.19 242.391 293.19Z" fill="white"/>
</g>
<g style="mix-blend-mode:soft-light" opacity="0.5">
<path d="M102.908 259.314C33.7394 259.314 7.1112 222.994 0.268606 211.168C0.121227 210.915 0.0317468 210.746 -0.015625 210.683L0.821277 210.04C0.88444 210.124 0.963393 210.261 1.18446 210.641C8.42182 223.183 38.224 263.578 118.43 257.702C118.331 247.083 116.95 236.516 114.319 226.229C110.192 209.892 100.976 187.105 80.5217 171.095L81.1692 170.268C101.865 186.467 111.171 209.518 115.345 226.003C119.861 243.847 119.477 258.065 119.477 258.207V258.682L119.003 258.719C113.4 259.123 108.034 259.321 102.908 259.314Z" fill="white"/>
</g>
<g style="mix-blend-mode:soft-light" opacity="0.5">
<path d="M95.0172 326.059C82.2584 326.059 74.4525 323.134 74.3525 323.092L74.7315 322.112C74.8526 322.154 87.164 326.76 106.202 324.262C123.746 321.964 150.737 313 179.829 283.367C178.986 279.678 169.265 239.821 135.789 201.951L100.318 161.826L101.107 161.125L136.578 201.251C171.733 241.018 180.834 283.004 180.918 283.425L180.976 283.699L180.781 283.899C151.374 313.938 124.035 323.003 106.271 325.316C102.54 325.808 98.7804 326.056 95.0172 326.059Z" fill="white"/>
</g>
</g>
<path d="M274.104 312.636C272.194 310.032 260.693 294.876 242.523 294.249C227.291 293.722 215.642 303.656 212.947 305.959C202.083 315.228 203.336 322.622 194.562 325.621C184.14 329.189 176.666 320.715 169.923 325.621C165.27 328.994 163.912 336.598 165.797 341.9C169.102 351.212 183.203 355.644 193.893 353.42C208.631 350.353 208.958 336.298 225.685 331.781C235.402 329.146 238.233 333.109 248.576 330.575C260.546 327.613 268.894 319.302 274.104 312.636Z" fill="url(#paint2_linear)"/>
<g style="mix-blend-mode:soft-light" opacity="0.5">
<g style="mix-blend-mode:soft-light" opacity="0.5">
<path d="M190.424 339.639C181.387 339.639 170.386 335.123 157.569 326.143L157.869 325.711C175.039 337.742 188.887 341.7 199.025 337.473C205.415 334.807 208.578 329.785 211.931 324.467C215.7 318.481 219.6 312.294 228.453 309.337C235.259 307.066 243.139 308.157 258.84 310.323C266.689 311.406 274.465 312.963 282.126 314.987L281.989 315.514C274.342 313.5 266.582 311.948 258.75 310.865C243.128 308.71 235.285 307.63 228.595 309.859C219.926 312.752 216.079 318.86 212.357 324.768C208.957 330.159 205.746 335.25 199.199 337.979C196.413 339.111 193.43 339.675 190.424 339.639Z" fill="white"/>
</g>
<g style="mix-blend-mode:soft-light" opacity="0.5">
<path d="M172.444 354.891L172.323 354.364C190.977 350.027 196.035 339.524 196.488 338.507C194.814 332.71 189.93 327.857 186.114 324.779C183.6 322.742 180.911 320.935 178.076 319.377L178.324 318.908C178.476 318.987 193.793 327.092 197.02 338.449L197.046 338.534L197.009 338.618C196.967 338.75 192.225 350.296 172.444 354.891Z" fill="white"/>
</g>
<g style="mix-blend-mode:soft-light" opacity="0.5">
<path d="M214.889 348.872C213.016 343.228 214.705 334.875 219.927 324.04C222.348 319.063 225.108 314.258 228.185 309.658C219.763 302.807 199.162 319.102 198.951 319.27L198.625 318.859C202.301 316.007 206.216 313.477 210.326 311.297C218.879 306.86 225.064 306.227 228.706 309.41L228.885 309.568L228.748 309.758C228.575 310.016 211.015 335.534 215.389 348.703L214.889 348.872Z" fill="white"/>
</g>
<g style="mix-blend-mode:soft-light" opacity="0.5">
<path d="M233.137 340.968C228.179 321.906 253.702 311.387 256.75 310.207C247.991 295.093 226.126 292.231 225.905 292.205L225.968 291.678C226.195 291.678 248.602 294.634 257.36 310.212L257.513 310.486L257.218 310.592C256.929 310.692 228.521 321.132 233.648 340.831L233.137 340.968Z" fill="white"/>
</g>
</g>
<path d="M165.881 105.657C168.791 107.138 172.444 105.778 174.044 102.627C175.644 99.4754 174.571 95.7179 171.671 94.2423C171.518 94.1632 171.365 94.1 171.213 94.0368C171.748 92.3124 172.156 90.551 172.434 88.7668C172.602 88.7668 172.765 88.7668 172.96 88.7668C176.276 88.4717 178.913 85.4151 178.839 81.9475C178.766 78.4798 176.023 75.9028 172.707 76.1979C172.534 76.1979 172.365 76.2453 172.181 76.2717C171.84 74.5628 171.365 72.8835 170.76 71.2494C170.913 71.1598 171.065 71.065 171.218 70.9596C174.055 68.9728 174.96 65.0414 173.244 62.1798C171.528 59.3182 167.828 58.6226 164.991 60.5988C164.845 60.7002 164.704 60.8092 164.57 60.9256C163.44 59.6769 162.208 58.5258 160.886 57.4843C160.975 57.3262 161.07 57.1733 161.154 57.01C162.733 53.848 164.838 50.412 161.907 48.9785C155.122 45.669 152.211 48.4832 150.611 51.6451C150.532 51.8085 150.458 51.9719 150.39 52.1405C148.771 51.6847 147.115 51.3674 145.442 51.1919C145.442 51.018 145.442 50.8441 145.442 50.6649C145.374 47.1973 146.4 45.3159 143.068 45.2527C135.805 45.1104 133.357 48.2671 133.426 51.74C133.427 51.9162 133.44 52.0922 133.462 52.267C131.787 52.7434 130.152 53.3514 128.573 54.0851C128.494 53.9323 128.415 53.7742 128.325 53.6267C126.609 50.7703 122.909 50.0694 120.072 52.0457C117.235 54.0219 116.324 57.9638 118.046 60.8254C118.135 60.9677 118.23 61.1047 118.325 61.2418C117.053 62.5196 115.877 63.8881 114.803 65.3365C114.661 65.2469 114.519 65.1573 114.372 65.0836C111.461 63.6027 107.808 64.9624 106.208 68.1138C104.608 71.2652 105.682 75.0227 108.582 76.5036C108.729 76.5774 108.882 76.6406 109.04 76.7038C108.504 78.4281 108.096 80.1895 107.819 81.9738C107.65 81.9738 107.482 81.9738 107.292 81.9738C103.971 82.2689 101.339 85.3255 101.408 88.7931C101.476 92.2608 104.224 94.8378 107.545 94.5427C107.719 94.5427 107.887 94.5005 108.071 94.4689C108.416 96.1787 108.891 97.8595 109.492 99.4964C109.34 99.586 109.187 99.6756 109.04 99.781C106.203 101.773 105.292 105.704 107.013 108.561C108.734 111.417 114.424 112.745 117.267 110.753C117.409 110.653 115.551 109.915 115.688 109.804C116.819 111.052 118.051 112.203 119.372 113.246C119.277 113.399 119.188 113.551 119.104 113.715C117.525 116.877 118.577 120.624 121.477 122.105C124.378 123.585 128.041 122.226 129.636 119.069C129.72 118.906 129.794 118.742 129.862 118.574C131.482 119.03 133.137 119.347 134.81 119.522C134.81 119.696 134.81 119.87 134.81 120.049C134.878 123.522 137.626 126.094 140.942 125.799C144.258 125.504 146.895 122.447 146.827 118.98C146.827 118.795 146.827 118.621 146.79 118.453C148.465 117.975 150.1 117.367 151.68 116.634C151.754 116.792 151.836 116.945 151.927 117.093C153.643 119.949 157.338 120.655 160.18 118.674C163.023 116.692 163.928 112.75 162.207 109.894C162.117 109.747 162.022 109.61 161.922 109.472C163.195 108.198 164.372 106.831 165.444 105.383C165.584 105.483 165.73 105.574 165.881 105.657ZM129.62 106.121C119.061 100.751 115.203 87.1173 121.009 75.6709C126.815 64.2246 140.084 59.2919 150.648 64.6567C161.212 70.0215 165.06 83.6602 159.254 95.1118C153.448 106.563 140.184 111.491 129.62 106.121Z" fill="#D8DEE8"/>
<path d="M172.94 88.7567C176.256 88.4616 178.893 85.405 178.819 81.9374C178.745 78.4697 176.003 75.8927 172.687 76.1878C172.513 76.1878 172.345 76.2353 172.161 76.2616C171.819 74.5527 171.344 72.8734 170.739 71.2393C170.892 71.1497 171.045 71.0549 171.197 70.9495C174.034 68.9574 177.545 64.146 175.545 61.4635C171.739 56.4044 167.808 58.5914 164.971 60.5835C164.825 60.6848 164.684 60.7939 164.549 60.9102C163.42 59.6616 162.187 58.5104 160.865 57.4689C160.954 57.3108 161.049 57.158 161.133 56.9946C161.545 56.1954 161.79 55.3208 161.853 54.4239C161.917 53.527 161.797 52.6265 161.502 51.7773C158.754 56.6081 156.059 61.4706 153.417 66.3646C161.839 72.5463 164.523 84.7252 159.254 95.1123C154.791 103.913 145.922 108.851 137.258 108.234C136.874 109.236 136.495 110.248 136.079 111.238C134.958 113.937 133.684 116.577 132.395 119.212C133.2 119.365 134.005 119.486 134.816 119.57C134.816 119.744 134.816 119.918 134.816 120.097C134.884 123.57 136.99 126.516 143.001 126.2C146.332 126.021 146.901 122.511 146.832 119.027C146.832 118.843 146.832 118.669 146.796 118.5C148.47 118.023 150.105 117.415 151.685 116.682C151.759 116.839 151.842 116.993 151.933 117.141C153.649 119.997 159.612 121.214 162.46 119.249C165.307 117.283 163.939 112.814 162.218 109.958C162.128 109.81 162.034 109.673 161.933 109.536C163.206 108.262 164.383 106.895 165.455 105.447C165.596 105.537 165.742 105.62 165.892 105.694C168.802 107.175 172.455 105.816 174.055 102.664C175.656 99.5127 174.582 95.7552 171.682 94.2796C171.529 94.2006 171.376 94.1373 171.224 94.0741C171.759 92.3498 172.167 90.5884 172.445 88.8041C172.603 88.7725 172.766 88.7725 172.94 88.7567Z" fill="#D8DEE8"/>
<path d="M169.007 106.016C171.918 107.497 175.571 106.137 177.171 102.986C178.771 99.8342 177.697 96.0767 174.797 94.5959C174.648 94.5206 174.495 94.4537 174.339 94.3956C174.875 92.6714 175.283 90.9099 175.56 89.1256C175.729 89.1256 175.904 89.1256 176.086 89.1256C179.408 88.8252 182.04 85.7739 181.971 82.3063C181.903 78.8386 179.155 76.2616 175.834 76.5568C175.66 76.5568 175.492 76.5989 175.307 76.6305C174.963 74.9207 174.488 73.2399 173.886 71.603C174.039 71.5134 174.192 71.4238 174.339 71.3184C177.176 69.3264 178.087 65.395 176.365 62.5386C174.644 59.6823 170.949 58.9814 168.112 60.9577C167.968 61.0576 167.829 61.1649 167.696 61.2791C166.565 60.032 165.333 58.881 164.012 57.8378C164.107 57.6833 164.196 57.5252 164.28 57.3635C165.859 54.2016 164.807 50.4599 161.907 48.979C159.006 47.4982 155.348 48.8578 153.748 52.0093C153.664 52.1726 153.59 52.3413 153.522 52.5046C151.902 52.0531 150.247 51.7375 148.574 51.5613C148.574 51.3874 148.574 51.2082 148.574 51.0343C148.506 47.5614 145.758 44.9897 142.442 45.2848C139.126 45.5799 136.489 48.6365 136.557 52.1041C136.557 52.2886 136.557 52.4625 136.594 52.6311C134.92 53.1089 133.285 53.715 131.704 54.444C131.631 54.2912 131.552 54.1383 131.462 53.9908C129.741 51.1292 126.046 50.4283 123.204 52.4098C120.361 54.3913 119.461 58.3332 121.177 61.1895C121.267 61.3371 121.361 61.4741 121.461 61.6111C120.187 62.8844 119.01 64.2514 117.94 65.7006C117.798 65.611 117.656 65.5267 117.503 65.4477C114.593 63.9721 110.94 65.3265 109.34 68.4832C107.739 71.6399 108.813 75.3921 111.713 76.8677C111.866 76.9467 112.019 77.01 112.171 77.0732C111.636 78.7975 111.228 80.5589 110.95 82.3432C110.782 82.3432 110.619 82.3432 110.424 82.3432C107.108 82.6383 104.471 85.6896 104.544 89.1625C104.618 92.6354 107.36 95.2072 110.677 94.9068C110.85 94.9068 111.019 94.8646 111.203 94.8383C111.547 96.5466 112.022 98.2257 112.624 99.8605C112.471 99.9501 112.319 100.045 112.171 100.145C109.329 102.137 108.424 106.069 110.14 108.925C111.856 111.781 115.556 112.487 118.398 110.506C118.54 110.4 118.677 110.295 118.814 110.179C119.943 111.428 121.176 112.579 122.498 113.62C122.409 113.773 122.314 113.931 122.23 114.095C120.651 117.257 121.704 121.004 124.604 122.479C127.504 123.955 131.167 122.6 132.768 119.449C132.847 119.286 132.92 119.122 132.989 118.954C134.608 119.408 136.263 119.723 137.936 119.897C137.936 120.076 137.936 120.25 137.936 120.424C138.005 123.892 140.752 126.463 144.074 126.168C147.395 125.873 150.027 122.822 149.953 119.349C149.951 119.173 149.939 118.997 149.916 118.822C151.592 118.342 153.228 117.734 154.811 117.004C154.885 117.157 154.964 117.315 155.053 117.462C156.775 120.319 160.47 121.019 163.307 119.043C166.144 117.067 167.054 113.12 165.333 110.263C165.249 110.121 165.149 109.984 165.054 109.847C166.325 108.569 167.502 107.201 168.575 105.752C168.718 105.852 168.86 105.926 169.007 106.016ZM132.747 106.453C122.188 101.088 118.335 87.4814 124.141 76.0034C129.946 64.5254 143.216 59.6244 153.774 64.9945C164.333 70.3645 168.191 83.9979 162.385 95.4443C156.58 106.891 143.31 111.844 132.747 106.453Z" fill="white"/>
<path d="M358.758 65.0151C355.905 55.7715 351.452 51.3131 348.057 48.9364C340.783 43.872 330.93 43.2975 331.214 41.3529C331.335 40.515 333.283 39.9406 333.846 39.7719C336.699 38.934 338.293 40.378 339.883 39.4294C341.067 38.7179 341.388 37.1949 341.625 35.9986C342.81 29.954 339.325 22.5128 337.472 17.0584C337.346 16.6789 337.057 15.7988 337.341 15.5933C337.625 15.3878 338.467 16.036 338.746 16.2626C341.694 18.6657 345.373 29.3954 345.368 29.4006C345.362 29.4059 345.368 28.1675 344.268 24.6577C342.336 18.555 340.236 15.7251 340.42 10.8872C340.457 9.93864 340.494 9.09018 340.82 8.99532C342.473 8.50521 348.421 28.2202 349.515 27.8565C349.794 27.7617 349.642 26.4494 349.563 25.796C348.847 19.6775 345.483 17.8541 345.773 12.9109C345.815 12.1309 345.883 10.9979 346.299 10.8767C347.726 10.4762 351.51 22.0016 353.389 27.2716C357.277 38.2104 360.402 49.4061 362.743 60.778C361.416 62.1904 360.088 63.6027 358.758 65.0151Z" fill="#FFCBAD"/>
<path d="M237.222 50.064C231.964 48.4409 230.543 42.3488 230.017 39.9404C228.695 34.2436 229.206 24.4151 235.164 21.6853C239.949 19.4982 245.297 23.2663 245.96 23.7248C252.702 28.5942 251.434 37.9273 251.287 38.9023C250.955 41.0893 250.271 45.6004 246.307 48.3882C246.007 48.6043 241.77 51.508 237.222 50.064Z" fill="url(#paint3_linear)"/>
<g style="mix-blend-mode:multiply" opacity="0.3">
<path style="mix-blend-mode:multiply" opacity="0.3" d="M244.186 36.0726C240.701 32.6102 235.764 34.128 233.695 30.9765C232.643 29.3955 232.395 26.7605 234.485 22.0176C229.153 25.1479 228.727 34.4442 229.995 39.9355C230.543 42.3491 231.964 48.4412 237.222 50.0643C241.77 51.4872 246.007 48.5835 246.286 48.3832C246.46 48.262 246.623 48.1355 246.786 48.0038C247.386 43.498 247.033 38.8973 244.186 36.0726Z" fill="url(#paint4_linear)"/>
</g>
<path d="M233.064 171.273C233.064 171.273 211.9 105.399 211.968 80.5774C212.036 55.7559 233.643 46.1487 243.233 43.8563C252.823 41.5638 273.151 44.0829 279.41 71.9979C285.668 99.9129 281.152 162.462 281.152 162.462L233.064 171.273Z" fill="url(#paint5_linear)"/>
<g style="mix-blend-mode:soft-light" opacity="0.3">
<path d="M250.634 104.915C265.898 103.049 269.262 88.6359 283.268 86.9705C284.785 86.7893 286.317 86.7734 287.837 86.9231C287.626 84.1933 287.368 81.5636 287.047 79.0761C285.346 78.8678 283.627 78.8678 281.926 79.0761C267.904 80.7362 264.525 95.1495 249.292 96.994C236.854 98.5118 231.306 89.8848 220.785 93.6371C218.215 94.5792 215.858 96.025 213.853 97.8899C214.289 100.398 214.795 103.002 215.353 105.674C217.324 103.876 219.627 102.479 222.132 101.563C232.649 97.8109 238.196 106.454 250.634 104.915Z" fill="white"/>
</g>
<path style="mix-blend-mode:multiply" opacity="0.8" d="M251.934 130.167C240.533 131.474 235.317 122.789 225.7 126.341C223.951 126.999 222.323 127.941 220.879 129.129C226.637 151.247 233.064 171.273 233.064 171.273L281.152 162.461C281.152 162.461 282.92 137.946 282.731 112.766C282.378 112.766 282.036 112.813 281.678 112.85C268.824 114.268 265.919 128.586 251.934 130.167Z" fill="url(#paint6_linear)"/>
<path style="mix-blend-mode:multiply" opacity="0.3" d="M277.499 88.2193C264.64 89.6369 261.709 103.95 247.75 105.542C236.333 106.843 231.122 98.1374 221.506 101.71C219.195 102.594 217.094 103.951 215.337 105.695C216.89 113.252 218.842 121.336 220.879 129.156C222.323 127.969 223.952 127.027 225.701 126.369C235.317 122.79 240.544 131.491 251.934 130.168C265.919 128.587 268.825 114.253 281.684 112.83C282.015 112.809 278.747 88.0823 277.499 88.2193Z" fill="url(#paint7_linear)"/>
<path d="M168.507 217.977C159.227 205.856 171.997 178.452 186.013 163.032C202.33 145.072 223.19 140.129 236.433 137.177C280.268 127.412 294.332 147.264 316.439 135.876C350.762 118.211 343.23 56.8263 358.742 55.1136C371.474 53.7223 391.539 93.5 386.002 132.946C381.717 163.554 352.657 193.661 323.286 207.068C301.99 216.796 305.222 214.214 256.734 217.017C200.541 220.285 177.655 229.903 168.507 217.977Z" fill="url(#paint8_linear)"/>
<path d="M221.211 140.986C230.207 137.74 244.897 137.008 244.76 104.819C244.76 104.819 263.393 103.638 264.104 103.87C264.814 104.102 259.167 136.017 285.205 135.806C286.979 135.806 287.442 138.283 286.021 139.411C281.31 143.147 270.694 148.928 254.966 149.113C245.008 149.229 233.654 151.463 221.153 144.897C219.443 143.974 219.322 141.666 221.211 140.986Z" fill="#FFCBAD"/>
<path d="M284.968 201.841C279.705 201.904 281.526 157.288 265.751 91.7933C262.477 78.2073 259.272 67.1298 256.998 59.6886L273.841 57.5332C283.558 76.289 298.064 111.166 295.285 156.361C294.006 177.599 288.848 201.799 284.968 201.841Z" fill="url(#paint9_linear)"/>
<path d="M284.968 201.841C279.705 201.904 281.526 157.288 265.751 91.7933C262.477 78.2073 259.272 67.1298 256.998 59.6886L273.841 57.5332C283.558 76.289 298.064 111.166 295.285 156.361C294.006 177.599 288.848 201.799 284.968 201.841Z" fill="url(#paint10_linear)"/>
<path d="M226.411 85.9013C227.127 90.1172 230.422 121.21 254.124 116.082C275.773 111.382 270.072 89.3794 267.53 78.2598C267.53 78.2598 264.824 68.3628 257.045 67.0664C257.045 67.0664 264.772 71.3878 266.793 83.8987C266.793 83.8987 263.977 77.6011 248.06 80.8105C232.143 84.0199 230.017 91.8774 230.017 91.8774C230.017 91.8774 225.164 80.4468 232.185 72.4523C232.185 72.4312 226.753 75.4351 226.411 85.9013Z" fill="#FFCBAD"/>
<g style="mix-blend-mode:multiply" opacity="0.3">
<path style="mix-blend-mode:multiply" opacity="0.3" d="M380.796 82.8594C383.764 100.113 380.58 111.254 375.938 118.753C365.479 135.617 346.988 135.127 324.229 161.782C311.491 176.707 310.664 184.622 302.743 196.074C298.586 202.048 293.627 207.419 288.005 212.037C305.111 212.516 308.422 213.855 323.271 207.067C352.625 193.66 381.696 163.553 386.001 132.945C388.533 115.022 385.765 97.0303 380.796 82.8594Z" fill="url(#paint11_linear)"/>
</g>
<path d="M386.302 215.277L87.6539 204.964C86.1579 204.911 84.6667 205.161 83.2692 205.698C81.8717 206.236 80.5966 207.049 79.5198 208.09C78.4431 209.131 77.5868 210.379 77.002 211.759C76.4173 213.138 76.116 214.622 76.1162 216.12V408.838C76.1162 410.374 76.433 411.894 77.0468 413.302C77.6606 414.71 78.5581 415.976 79.6831 417.021C80.8082 418.066 82.1366 418.867 83.5851 419.374C85.0336 419.881 86.5711 420.083 88.1013 419.968L386.749 397.539C389.555 397.328 392.177 396.063 394.091 393.998C396.005 391.933 397.069 389.221 397.071 386.404V226.434C397.07 223.539 395.946 220.758 393.937 218.677C391.928 216.596 389.191 215.377 386.302 215.277Z" fill="#EBF7FF"/>
<path d="M391.434 215.277L92.7857 204.964C91.2897 204.911 89.7985 205.161 88.401 205.698C87.0035 206.236 85.7284 207.049 84.6517 208.09C83.5749 209.131 82.7186 210.379 82.1339 211.759C81.5491 213.138 81.2478 214.622 81.248 216.12V408.838C81.248 410.375 81.565 411.895 82.1791 413.303C82.7931 414.712 83.6911 415.978 84.8168 417.023C85.9424 418.068 87.2714 418.869 88.7206 419.376C90.1697 419.882 91.7078 420.084 93.2384 419.968L391.886 397.539C394.691 397.326 397.312 396.061 399.225 393.996C401.138 391.932 402.202 389.22 402.203 386.404V226.434C402.202 223.539 401.078 220.758 399.069 218.677C397.06 216.596 394.323 215.377 391.434 215.277Z" fill="url(#paint12_linear)"/>
<path d="M274.183 322.443L399.323 218.967C398.324 217.851 397.109 216.949 395.752 216.315C394.395 215.681 392.924 215.328 391.428 215.278L92.7855 204.965C90.0622 204.864 87.3975 205.772 85.3008 207.515L252.592 323.365C255.799 325.588 259.644 326.702 263.542 326.535C267.44 326.369 271.176 324.932 274.183 322.443Z" fill="#F4F7FA"/>
<path d="M274.183 322.443C271.177 324.929 267.443 326.365 263.547 326.532C259.652 326.698 255.809 325.586 252.603 323.365L85.301 207.516C84.033 208.562 83.012 209.876 82.3113 211.364C81.6105 212.852 81.2475 214.476 81.248 216.121V408.839C81.248 410.376 81.565 411.896 82.1791 413.305C82.7931 414.713 83.6911 415.979 84.8168 417.024C85.9424 418.069 87.2714 418.87 88.7206 419.377C90.1697 419.884 91.7078 420.085 93.2384 419.969L391.886 397.54C394.691 397.328 397.312 396.062 399.225 393.998C401.138 391.933 402.202 389.221 402.203 386.405V226.435C402.202 223.674 401.175 221.013 399.324 218.967L274.183 322.443Z" fill="#F4F7FA"/>
<g style="mix-blend-mode:multiply" opacity="0.37">
<path d="M399.324 218.967L274.183 322.443C271.177 324.929 267.443 326.365 263.547 326.532C259.652 326.698 255.809 325.586 252.603 323.365L85.301 207.516C84.033 208.562 83.012 209.876 82.3113 211.364C81.6105 212.852 81.2475 214.476 81.248 216.121V244.527C87.2959 241.986 92.4067 241.496 96.5649 241.844C108.061 242.803 110.776 249.992 132.81 260.358C153.385 270.054 155.548 265.923 164.617 272.948C182.092 286.486 174.45 302.112 189.766 316.646C205.715 331.781 219.479 320.029 242.286 334.422C266.388 349.62 258.671 367.57 278.531 378.115C306.354 392.871 334.766 364.713 358.415 379.596C365.569 384.096 370.137 391.19 373.085 398.937L391.886 397.524C394.691 397.312 397.312 396.046 399.225 393.982C401.138 391.917 402.202 389.205 402.203 386.389V226.435C402.202 223.674 401.175 221.013 399.324 218.967Z" fill="#AAB8C1"/>
</g>
<path d="M175.118 157.07C175.823 157.368 176.615 157.387 177.334 157.123C178.053 156.859 178.646 156.333 178.992 155.649C179.338 154.965 179.413 154.176 179.201 153.439C178.989 152.702 178.506 152.074 177.85 151.679C177.78 151.642 177.708 151.611 177.634 151.584C177.887 150.771 178.081 149.939 178.213 149.097C178.292 149.102 178.371 149.102 178.45 149.097C179.23 149.003 179.947 148.621 180.461 148.025C180.975 147.43 181.249 146.664 181.229 145.877C181.235 145.502 181.163 145.131 181.017 144.786C180.871 144.441 180.654 144.13 180.381 143.875C180.108 143.619 179.784 143.423 179.43 143.301C179.077 143.178 178.701 143.131 178.329 143.163C178.247 143.17 178.166 143.182 178.086 143.2C177.926 142.391 177.703 141.597 177.418 140.823C177.491 140.781 177.561 140.735 177.629 140.686C178.275 140.238 178.732 139.565 178.909 138.798C179.086 138.031 178.971 137.225 178.586 136.539C178.392 136.22 178.132 135.945 177.825 135.733C177.518 135.52 177.169 135.374 176.802 135.305C176.435 135.235 176.058 135.244 175.694 135.329C175.331 135.414 174.989 135.575 174.691 135.801L174.491 135.954C173.958 135.366 173.377 134.823 172.754 134.331L172.881 134.104C173.634 132.618 174.623 130.989 173.239 130.31C170.033 128.729 168.659 130.088 167.901 131.574L167.796 131.812C167.031 131.597 166.249 131.447 165.459 131.364C165.459 131.279 165.459 131.195 165.459 131.116C165.422 129.477 165.912 128.586 164.338 128.555C160.906 128.491 159.748 129.983 159.78 131.622C159.78 131.706 159.78 131.79 159.78 131.875C158.988 132.098 158.215 132.386 157.469 132.734C157.432 132.66 157.395 132.586 157.353 132.512C157.158 132.193 156.898 131.919 156.59 131.706C156.283 131.494 155.934 131.348 155.566 131.278C155.199 131.209 154.821 131.217 154.457 131.303C154.093 131.388 153.751 131.549 153.453 131.775C152.806 132.222 152.35 132.896 152.173 133.663C151.995 134.43 152.11 135.235 152.495 135.922C152.537 135.991 152.585 136.054 152.627 136.117C152.028 136.723 151.473 137.369 150.963 138.051C150.897 138.008 150.829 137.97 150.758 137.935C150.051 137.642 149.259 137.628 148.542 137.896C147.825 138.164 147.235 138.694 146.893 139.38C146.551 140.065 146.481 140.855 146.697 141.59C146.913 142.326 147.399 142.952 148.058 143.342C148.127 143.379 148.2 143.411 148.274 143.437C148.021 144.251 147.827 145.082 147.695 145.924C147.616 145.919 147.537 145.919 147.458 145.924C146.678 146.019 145.96 146.401 145.446 146.996C144.932 147.592 144.659 148.358 144.679 149.144C144.672 149.519 144.744 149.891 144.89 150.236C145.036 150.581 145.253 150.891 145.526 151.147C145.8 151.403 146.124 151.598 146.477 151.721C146.831 151.843 147.206 151.89 147.579 151.858L147.821 151.827C147.982 152.634 148.205 153.426 148.49 154.198C148.415 154.24 148.343 154.286 148.274 154.335C147.627 154.783 147.17 155.456 146.993 156.224C146.816 156.991 146.931 157.796 147.316 158.483C148.132 159.832 150.821 160.459 152.158 159.537C152.232 159.489 151.353 159.142 151.416 159.089C151.95 159.678 152.531 160.223 153.153 160.717C153.111 160.784 153.069 160.858 153.027 160.939C152.821 161.269 152.687 161.638 152.631 162.023C152.576 162.408 152.601 162.8 152.705 163.174C152.809 163.549 152.99 163.898 153.236 164.199C153.482 164.499 153.788 164.746 154.135 164.922C154.481 165.098 154.86 165.2 155.248 165.222C155.636 165.243 156.024 165.184 156.387 165.047C156.751 164.91 157.082 164.699 157.36 164.427C157.638 164.156 157.856 163.829 158.001 163.468C158.04 163.391 158.075 163.312 158.106 163.231C158.871 163.447 159.653 163.597 160.443 163.679C160.443 163.763 160.443 163.848 160.443 163.932C160.437 164.306 160.51 164.678 160.656 165.022C160.803 165.367 161.019 165.677 161.292 165.932C161.566 166.188 161.889 166.384 162.242 166.507C162.596 166.629 162.971 166.677 163.343 166.646C164.133 166.55 164.857 166.159 165.372 165.551C165.886 164.943 166.152 164.164 166.117 163.368C166.117 163.278 166.117 163.194 166.117 163.115C166.908 162.888 167.681 162.601 168.428 162.256L168.544 162.472C168.738 162.792 168.998 163.067 169.306 163.28C169.614 163.493 169.962 163.639 170.33 163.709C170.698 163.778 171.076 163.77 171.44 163.684C171.804 163.598 172.146 163.437 172.444 163.21C173.091 162.762 173.547 162.089 173.724 161.322C173.902 160.555 173.787 159.749 173.402 159.063C173.36 158.994 173.312 158.931 173.265 158.868C173.866 158.263 174.424 157.617 174.934 156.933C174.991 156.984 175.052 157.03 175.118 157.07ZM157.985 157.292C153 154.757 151.179 148.333 153.922 142.905C156.664 137.477 162.933 135.168 167.917 137.703C172.902 140.238 174.728 146.662 171.986 152.09C169.244 157.518 162.975 159.827 157.985 157.292Z" fill="#D8DEE8"/>
<path d="M178.434 149.087C179.214 148.993 179.932 148.611 180.445 148.015C180.959 147.42 181.233 146.654 181.213 145.867C181.22 145.492 181.147 145.121 181.001 144.776C180.855 144.431 180.639 144.12 180.365 143.865C180.092 143.609 179.768 143.413 179.415 143.291C179.061 143.168 178.686 143.121 178.313 143.153C178.231 143.16 178.151 143.172 178.071 143.19C177.911 142.381 177.687 141.587 177.402 140.813C177.475 140.771 177.545 140.725 177.613 140.676C178.955 139.738 180.613 137.467 179.671 136.207C177.871 133.815 176.013 134.853 174.676 135.791L174.476 135.944C173.942 135.356 173.361 134.813 172.739 134.32L172.865 134.094C173.06 133.717 173.176 133.305 173.206 132.881C173.236 132.458 173.179 132.033 173.039 131.633C171.744 133.916 170.468 136.2 169.212 138.484C173.191 141.403 174.476 147.158 171.97 152.064C169.865 156.222 165.654 158.557 161.58 158.262C161.396 158.736 161.217 159.211 161.022 159.685C160.496 160.955 159.89 162.204 159.285 163.448C159.664 163.521 160.048 163.579 160.427 163.616C160.427 163.701 160.427 163.785 160.427 163.869C160.459 165.508 161.454 166.899 164.296 166.747C165.875 166.668 166.138 165.002 166.107 163.358C166.107 163.274 166.107 163.189 166.107 163.11C166.898 162.884 167.67 162.597 168.417 162.251L168.533 162.467C169.344 163.816 172.165 164.391 173.507 163.448C174.849 162.504 174.202 160.407 173.391 159.058C173.349 158.989 173.302 158.926 173.255 158.863C173.856 158.259 174.414 157.612 174.923 156.929C174.988 156.973 175.057 157.012 175.128 157.045C175.834 157.342 176.626 157.361 177.345 157.097C178.064 156.833 178.656 156.307 179.003 155.623C179.349 154.939 179.424 154.15 179.212 153.413C179 152.676 178.517 152.048 177.86 151.653C177.791 151.616 177.719 151.585 177.644 151.559C177.898 150.745 178.091 149.913 178.223 149.071C178.293 149.081 178.363 149.086 178.434 149.087Z" fill="#D8DEE8"/>
<path d="M176.591 157.24C177.295 157.523 178.079 157.533 178.788 157.266C179.498 156.999 180.082 156.476 180.426 155.799C180.769 155.123 180.847 154.342 180.644 153.611C180.441 152.879 179.972 152.251 179.328 151.849C179.259 151.813 179.186 151.781 179.113 151.754C179.364 150.94 179.556 150.109 179.686 149.267C179.767 149.272 179.848 149.272 179.928 149.267C180.709 149.172 181.426 148.79 181.94 148.195C182.454 147.599 182.728 146.833 182.708 146.047C182.713 145.672 182.641 145.301 182.494 144.956C182.348 144.612 182.131 144.302 181.858 144.046C181.585 143.79 181.261 143.595 180.908 143.472C180.555 143.349 180.18 143.302 179.807 143.333C179.723 143.333 179.644 143.333 179.565 143.364C179.402 142.558 179.178 141.765 178.897 140.993C178.969 140.951 179.04 140.905 179.107 140.856C179.754 140.408 180.211 139.735 180.388 138.968C180.565 138.201 180.45 137.395 180.065 136.708C179.871 136.388 179.611 136.113 179.303 135.9C178.995 135.687 178.647 135.541 178.279 135.472C177.911 135.402 177.533 135.411 177.169 135.496C176.805 135.582 176.463 135.744 176.165 135.97C176.097 136.018 176.033 136.071 175.97 136.123C175.435 135.53 174.85 134.984 174.223 134.49C174.27 134.417 174.312 134.341 174.349 134.263C174.555 133.933 174.689 133.564 174.745 133.179C174.8 132.794 174.775 132.402 174.671 132.027C174.566 131.653 174.386 131.304 174.139 131.003C173.893 130.702 173.587 130.456 173.241 130.28C172.895 130.104 172.516 130.002 172.128 129.98C171.74 129.959 171.352 130.018 170.989 130.155C170.625 130.291 170.294 130.502 170.016 130.774C169.738 131.046 169.52 131.373 169.375 131.733C169.338 131.812 169.301 131.891 169.27 131.971C168.505 131.754 167.723 131.604 166.933 131.523C166.933 131.438 166.933 131.354 166.933 131.27C166.938 130.896 166.864 130.525 166.718 130.18C166.571 129.836 166.355 129.526 166.082 129.271C165.809 129.016 165.485 128.82 165.133 128.697C164.78 128.574 164.405 128.525 164.033 128.556C163.251 128.65 162.533 129.033 162.019 129.629C161.505 130.226 161.232 130.993 161.253 131.781C161.253 131.865 161.253 131.949 161.253 132.034C160.463 132.259 159.69 132.545 158.943 132.888C158.909 132.813 158.871 132.741 158.827 132.671C158.633 132.352 158.374 132.077 158.066 131.864C157.759 131.651 157.411 131.505 157.043 131.435C156.676 131.366 156.298 131.374 155.935 131.46C155.571 131.546 155.229 131.707 154.932 131.934C154.285 132.381 153.829 133.055 153.651 133.822C153.474 134.589 153.589 135.394 153.974 136.081C154.016 136.15 154.058 136.213 154.106 136.276C153.506 136.88 152.95 137.527 152.442 138.21L152.237 138.094C151.534 137.811 150.75 137.802 150.04 138.068C149.33 138.335 148.746 138.858 148.402 139.535C148.059 140.211 147.981 140.992 148.184 141.724C148.387 142.455 148.857 143.084 149.5 143.485L149.716 143.58C149.464 144.394 149.272 145.226 149.142 146.068C149.063 146.062 148.984 146.062 148.905 146.068C148.125 146.162 147.408 146.544 146.894 147.139C146.38 147.735 146.106 148.501 146.126 149.288C146.12 149.662 146.192 150.033 146.337 150.378C146.483 150.722 146.699 151.032 146.972 151.288C147.245 151.544 147.568 151.739 147.921 151.862C148.274 151.985 148.649 152.033 149.021 152.002C149.105 152.002 149.184 152.002 149.263 151.97C149.426 152.777 149.651 153.57 149.937 154.342C149.863 154.383 149.791 154.429 149.721 154.479C149.074 154.926 148.618 155.6 148.441 156.367C148.263 157.134 148.378 157.939 148.763 158.626C148.958 158.945 149.218 159.22 149.526 159.432C149.834 159.645 150.183 159.791 150.55 159.86C150.917 159.93 151.295 159.921 151.659 159.836C152.023 159.75 152.365 159.59 152.663 159.364C152.732 159.316 152.795 159.264 152.858 159.211C153.395 159.799 153.977 160.344 154.6 160.839C154.554 160.911 154.512 160.985 154.474 161.061C154.268 161.391 154.134 161.76 154.078 162.145C154.023 162.53 154.048 162.922 154.152 163.296C154.257 163.671 154.438 164.02 154.684 164.321C154.93 164.622 155.236 164.868 155.582 165.044C155.928 165.22 156.307 165.322 156.695 165.344C157.083 165.365 157.471 165.306 157.834 165.169C158.198 165.032 158.529 164.821 158.807 164.55C159.085 164.278 159.303 163.951 159.448 163.59C159.487 163.513 159.523 163.434 159.553 163.353C160.318 163.569 161.1 163.719 161.89 163.801C161.89 163.885 161.89 163.97 161.89 164.054C161.885 164.428 161.957 164.799 162.103 165.143C162.249 165.487 162.465 165.797 162.738 166.052C163.011 166.308 163.334 166.504 163.686 166.627C164.039 166.75 164.413 166.798 164.785 166.768C165.567 166.674 166.285 166.291 166.799 165.694C167.313 165.098 167.586 164.331 167.564 163.543C167.57 163.459 167.57 163.374 167.564 163.29C168.355 163.064 169.128 162.779 169.875 162.436L169.991 162.652C170.186 162.972 170.445 163.247 170.753 163.46C171.061 163.673 171.41 163.819 171.777 163.889C172.145 163.958 172.523 163.95 172.887 163.864C173.251 163.778 173.593 163.617 173.891 163.39C174.538 162.942 174.995 162.269 175.172 161.502C175.349 160.735 175.234 159.929 174.849 159.243C174.807 159.174 174.76 159.111 174.712 159.048C175.314 158.445 175.87 157.798 176.376 157.114C176.445 157.16 176.517 157.202 176.591 157.24ZM159.464 157.461C154.474 154.921 152.658 148.502 155.4 143.074C158.143 137.646 164.406 135.338 169.396 137.873C174.386 140.408 176.207 146.832 173.465 152.26C170.723 157.688 164.454 159.996 159.485 157.461H159.464Z" fill="white"/>
<g style="mix-blend-mode:multiply" opacity="0.3">
<path d="M111.766 244.432V418.578L132.404 437.381L171.117 406.346L111.766 244.432Z" fill="url(#paint13_linear)"/>
</g>
<path d="M212.648 247.957L230.47 427.458C230.552 428.069 230.511 428.691 230.348 429.286C230.186 429.882 229.905 430.438 229.524 430.923C229.142 431.407 228.668 431.81 228.127 432.108C227.587 432.405 226.993 432.591 226.38 432.654L139.532 439.937C134.237 440.121 131.379 437.265 131.11 434.44L111.767 244.432C111.477 241.581 114.119 239.051 119.472 239.162L207.51 242.877C210.068 242.977 212.374 245.259 212.648 247.957Z" fill="url(#paint14_linear)"/>
<path d="M216.59 247.725L234.486 428.153C234.749 430.841 232.907 433.191 230.375 433.376L140.337 439.984C138.961 440.065 137.607 439.612 136.556 438.719C135.505 437.826 134.839 436.561 134.695 435.189L115.272 244.179C115.183 243.528 115.24 242.867 115.438 242.241C115.636 241.615 115.971 241.042 116.418 240.561C116.865 240.081 117.413 239.707 118.022 239.464C118.631 239.222 119.287 239.119 119.941 239.162L211.416 242.624C214.006 242.719 216.332 245.017 216.59 247.725Z" fill="#26264F"/>
<path d="M214.695 257.701L231.296 424.932C231.372 425.506 231.333 426.089 231.18 426.648C231.026 427.206 230.763 427.727 230.404 428.181C230.046 428.636 229.6 429.013 229.093 429.291C228.586 429.57 228.029 429.743 227.454 429.802L142.758 435.825C141.475 435.9 140.211 435.477 139.231 434.644C138.251 433.811 137.629 432.632 137.495 431.351L119.599 254.918C119.517 254.312 119.57 253.696 119.754 253.113C119.938 252.53 120.248 251.995 120.663 251.546C121.077 251.097 121.585 250.745 122.151 250.515C122.717 250.286 123.326 250.184 123.936 250.217L209.879 252.958C212.279 253.021 214.442 255.15 214.695 257.701Z" fill="url(#paint15_linear)"/>
<path d="M169.139 246.634C169.172 246.849 169.157 247.069 169.094 247.277C169.032 247.485 168.924 247.677 168.779 247.839C168.633 248 168.453 248.127 168.252 248.211C168.051 248.294 167.835 248.331 167.618 248.32C167.143 248.287 166.695 248.088 166.353 247.757C166.01 247.427 165.795 246.986 165.744 246.512C165.712 246.297 165.727 246.077 165.79 245.869C165.853 245.66 165.962 245.469 166.108 245.307C166.254 245.146 166.434 245.019 166.635 244.936C166.836 244.853 167.053 244.815 167.27 244.826C167.744 244.86 168.19 245.06 168.532 245.391C168.873 245.721 169.088 246.161 169.139 246.634Z" fill="white"/>
<g opacity="0.66">
<path d="M161.123 295.198C151.001 300.468 146.664 312.199 151.443 321.395C156.222 330.591 168.286 333.758 178.424 328.488L161.123 295.198Z" fill="#40A9C8"/>
<path d="M178.434 328.488L161.133 295.198C163.397 294.019 166.035 293.789 168.468 294.558C170.901 295.327 172.93 297.032 174.108 299.298L182.529 315.493C183.707 317.76 183.937 320.402 183.169 322.839C182.401 325.276 180.698 327.308 178.434 328.488Z" fill="#40A9C8"/>
<path d="M185.661 343.482C175.54 348.751 171.208 360.488 175.982 369.678C180.756 378.869 192.825 382.047 202.963 376.772L185.661 343.482Z" fill="#40A9C8"/>
<path d="M202.963 376.772L185.661 343.482C187.926 342.303 190.565 342.072 192.999 342.841C195.433 343.61 197.462 345.315 198.641 347.582L207.063 363.776C207.646 364.899 208.003 366.126 208.113 367.387C208.223 368.648 208.083 369.918 207.702 371.125C207.321 372.332 206.707 373.451 205.894 374.42C205.08 375.389 204.084 376.188 202.963 376.772Z" fill="#40A9C8"/>
<path d="M188.314 366.601L177.787 372.087C164.333 358.968 155.25 341.474 150.537 319.603L161.065 314.117L188.314 366.601Z" fill="#40A9C8"/>
</g>
<g style="mix-blend-mode:soft-light" opacity="0.3">
<g style="mix-blend-mode:soft-light" opacity="0.3">
<path d="M160.801 334.695C151.853 308.218 167.433 294.88 158.612 270.359C153.811 257.015 144.2 247.076 133.631 239.677L119.946 239.15C119.292 239.107 118.636 239.211 118.027 239.453C117.418 239.695 116.87 240.07 116.423 240.55C115.976 241.03 115.641 241.604 115.443 242.229C115.245 242.855 115.188 243.517 115.277 244.167L134.694 435.188C134.837 436.561 135.503 437.826 136.554 438.719C137.606 439.612 138.96 440.065 140.337 439.983L218.079 434.276C217.832 414.334 212.774 400.137 207.147 390.05C191.677 362.32 170.071 362.109 160.801 334.695Z" fill="#F4F7FA"/>
</g>
</g>
</g>
<defs>
<linearGradient id="paint0_linear" x1="373736" y1="58623.4" x2="344859" y2="95405.2" gradientUnits="userSpaceOnUse">
<stop stop-color="#40A9C8"/>
<stop offset="1" stop-color="#59C4E3"/>
</linearGradient>
<linearGradient id="paint1_linear" x1="779214" y1="62498.9" x2="757334" y2="117075" gradientUnits="userSpaceOnUse">
<stop stop-color="#40A9C8"/>
<stop offset="1" stop-color="#59C4E3"/>
</linearGradient>
<linearGradient id="paint2_linear" x1="34364.6" y1="37044.4" x2="56994.4" y2="37044.4" gradientUnits="userSpaceOnUse">
<stop stop-color="#FF9085"/>
<stop offset="1" stop-color="#FB6FBB"/>
</linearGradient>
<linearGradient id="paint3_linear" x1="251.509" y1="15.1009" x2="243.182" y2="30.091" gradientUnits="userSpaceOnUse">
<stop stop-color="#444B8C"/>
<stop offset="1" stop-color="#3E4177"/>
</linearGradient>
<linearGradient id="paint4_linear" x1="5744.39" y1="-10008.8" x2="5179.49" y2="-9569.41" gradientUnits="userSpaceOnUse">
<stop stop-color="#444B8C"/>
<stop offset="1" stop-color="#3E4177"/>
</linearGradient>
<linearGradient id="paint5_linear" x1="23470" y1="-39637.5" x2="13335.2" y2="-24786.5" gradientUnits="userSpaceOnUse">
<stop stop-color="#444B8C"/>
<stop offset="1" stop-color="#3E4177"/>
</linearGradient>
<linearGradient id="paint6_linear" x1="21760.1" y1="-18071.8" x2="18521.1" y2="-8987.94" gradientUnits="userSpaceOnUse">
<stop stop-color="#444B8C"/>
<stop offset="1" stop-color="#3E4177"/>
</linearGradient>
<linearGradient id="paint7_linear" x1="22140.1" y1="-13155.5" x2="20463.4" y2="-6141.29" gradientUnits="userSpaceOnUse">
<stop stop-color="#444B8C"/>
<stop offset="1" stop-color="#3E4177"/>
</linearGradient>
<linearGradient id="paint8_linear" x1="165.348" y1="140.139" x2="386.946" y2="140.139" gradientUnits="userSpaceOnUse">
<stop stop-color="#40A9C8"/>
<stop offset="1" stop-color="#A4CF59"/>
</linearGradient>
<linearGradient id="paint9_linear" x1="14879.8" y1="-42175.5" x2="3446.99" y2="-34057.1" gradientUnits="userSpaceOnUse">
<stop stop-color="#444B8C"/>
<stop offset="1" stop-color="#3E4177"/>
</linearGradient>
<linearGradient id="paint10_linear" x1="14879.8" y1="-42175.5" x2="3446.99" y2="-34057.1" gradientUnits="userSpaceOnUse">
<stop stop-color="#444B8C"/>
<stop offset="1" stop-color="#3E4177"/>
</linearGradient>
<linearGradient id="paint11_linear" x1="330.476" y1="248.231" x2="353.043" y2="-9.96105" gradientUnits="userSpaceOnUse">
<stop stop-color="#E38DDD"/>
<stop offset="0.71" stop-color="#AC79EF"/>
<stop offset="1" stop-color="#9571F6"/>
</linearGradient>
<linearGradient id="paint12_linear" x1="129824" y1="103623" x2="163100" y2="213615" gradientUnits="userSpaceOnUse">
<stop stop-color="#FFC444"/>
<stop offset="1" stop-color="#F36F56"/>
</linearGradient>
<linearGradient id="paint13_linear" x1="176591" y1="71325" x2="147853" y2="85559.6" gradientUnits="userSpaceOnUse">
<stop stop-color="#EAE7EA"/>
<stop offset="1" stop-color="#7A7A7A"/>
</linearGradient>
<linearGradient id="paint14_linear" x1="109.853" y1="339.164" x2="232.211" y2="341.596" gradientUnits="userSpaceOnUse">
<stop stop-color="#444B8C"/>
<stop offset="1" stop-color="#26264F"/>
</linearGradient>
<linearGradient id="paint15_linear" x1="332469" y1="68631.9" x2="297732" y2="102314" gradientUnits="userSpaceOnUse">
<stop stop-color="#EAE7EA"/>
<stop offset="1" stop-color="#F0F0F0"/>
</linearGradient>
<clipPath id="clip0">
<rect width="439" height="440" fill="white"/>
</clipPath>
</defs>
</svg>
