<?xml version="1.0" encoding="utf-8"?>
<!-- Generator: Adobe Illustrator 27.8.1, SVG Export Plug-In . SVG Version: 6.00 Build 0)  -->
<!DOCTYPE svg PUBLIC "-//W3C//DTD SVG 1.1//EN" "http://www.w3.org/Graphics/SVG/1.1/DTD/svg11.dtd" [
	<!ENTITY ns_extend "http://ns.adobe.com/Extensibility/1.0/">
	<!ENTITY ns_ai "http://ns.adobe.com/AdobeIllustrator/10.0/">
	<!ENTITY ns_graphs "http://ns.adobe.com/Graphs/1.0/">
	<!ENTITY ns_vars "http://ns.adobe.com/Variables/1.0/">
	<!ENTITY ns_imrep "http://ns.adobe.com/ImageReplacement/1.0/">
	<!ENTITY ns_sfw "http://ns.adobe.com/SaveForWeb/1.0/">
	<!ENTITY ns_custom "http://ns.adobe.com/GenericCustomNamespace/1.0/">
	<!ENTITY ns_adobe_xpath "http://ns.adobe.com/XPath/1.0/">
]>
<svg version="1.1" id="Layer_1" xmlns:x="&ns_extend;" xmlns:i="&ns_ai;" xmlns:graph="&ns_graphs;"
	 xmlns="http://www.w3.org/2000/svg" xmlns:xlink="http://www.w3.org/1999/xlink" x="0px" y="0px" viewBox="0 0 61.5 56.6"
	 style="enable-background:new 0 0 61.5 56.6;" xml:space="preserve">
<style type="text/css">
	.st0{fill:#285BA7;stroke:#285BA7;stroke-width:0.75;stroke-miterlimit:10;}
</style>
<metadata>
	<sfw  xmlns="&ns_sfw;">
		<slices></slices>
		<sliceSourceBounds  bottomLeftOrigin="true" height="50.7" width="50.7" x="5.5" y="2.9"></sliceSourceBounds>
	</sfw>
</metadata>
<g>
	<g>
		<path class="st0" d="M30.9,5.2c-6,0-11.6,2.3-15.9,6.4c-0.6,0.6,0.3,1.6,0.9,1c4.1-3.9,9.4-6,15-6c12,0,21.8,9.8,21.8,21.8
			s-9.8,21.8-21.8,21.8S9.1,40.4,9.1,28.4c0-4.8,1.5-9.3,4.4-13.2c0.5-0.7-0.6-1.5-1.1-0.8c-3.1,4.1-4.7,8.9-4.7,14
			c0,12.8,10.4,23.2,23.2,23.2s23.2-10.4,23.2-23.2S43.7,5.2,30.9,5.2z"/>
		<path class="st0" d="M32.6,46.1c-0.9,0.1-0.7,1.4,0.1,1.4c4.7-0.4,9.1-2.6,12.3-6.1s5-8.2,5-12.9c0-10.6-8.6-19.2-19.2-19.2
			s-19.2,8.6-19.2,19.2c0,4.8,1.8,9.4,5.1,13c3.3,3.5,7.7,5.7,12.4,6.1c0.9,0.1,1-1.3,0.1-1.4C25,45.7,21,43.8,18,40.7l6.4-6.3
			l3.8,3.6c0.3,0.3,0.7,0.2,0.9,0l2.9-2.9l1.8,1.8c0.3,0.3,0.7,0.3,1,0l2.6-2.5l6.3,6.4C40.6,43.9,36.7,45.7,32.6,46.1z M44.5,39.8
			l-6.2-6.3l3.1-3.1L47,36C46.3,37.4,45.5,38.7,44.5,39.8z M30.9,10.6c9.8,0,17.8,8,17.8,17.8c0,2.2-0.4,4.3-1.2,6.3L41.9,29
			c-0.3-0.3-0.7-0.3-1,0l-3.6,3.6l-5.8-5.8v-2.4h5.7c0.5,0,0.8-0.6,0.6-1l-1.2-2l1.2-2c0.3-0.4-0.1-1-0.6-1h-5.7v-0.7
			c0-0.9-1.4-0.9-1.4,0v9.1l-7.7,7.6L19,31c-0.3-0.3-0.7-0.3-1,0l-3.9,3.9c-0.8-2-1.2-4.2-1.2-6.4C13.1,18.6,21.1,10.6,30.9,10.6z
			 M35.3,21.6L36,23h-4.5v-3.3H36L35.2,21C35.1,21.2,35.1,21.4,35.3,21.6z M14.8,36.1l3.8-3.8l2.9,2.9l-4.4,4.4
			C16.2,38.5,15.5,37.3,14.8,36.1z M34.3,35.6l-1.8-1.9c-0.1-0.1-0.3-0.2-0.5-0.2l0,0c-0.2,0-0.4,0.1-0.5,0.2l-2.9,2.9l-3.3-3.1
			l5.5-5.5l5.5,5.6L34.3,35.6z"/>
		<path class="st0" d="M16.2,27.2c0.4,0,0.7-0.2,0.8-0.6c0.3-2.8,1.5-5.4,3.4-7.5s4.3-3.5,7-4.2c0.8-0.2,0.5-1.5-0.3-1.3
			c-3,0.7-5.6,2.3-7.7,4.6s-3.4,5.1-3.7,8.2C15.5,26.8,15.8,27.1,16.2,27.2z"/>
	</g>
	<g>
		<g>
			<path class="st0" d="M12.3,10.7L6.1,4.5c-0.2-0.2-0.2-0.6,0-0.9l0,0c0.2-0.2,0.6-0.2,0.9,0l6.2,6.2c0.2,0.2,0.2,0.6,0,0.9l0,0
				C13,10.9,12.6,10.9,12.3,10.7z"/>
			<path class="st0" d="M54.8,53.2L48.6,47c-0.2-0.2-0.2-0.6,0-0.9l0,0c0.2-0.2,0.6-0.2,0.9,0l6.2,6.2c0.2,0.2,0.2,0.6,0,0.9l0,0
				C55.5,53.4,55.1,53.4,54.8,53.2z"/>
		</g>
		<g>
			<path class="st0" d="M48.6,9.8l6.2-6.2c0.2-0.2,0.6-0.2,0.9,0l0,0c0.2,0.2,0.2,0.6,0,0.9l-6.2,6.2c-0.2,0.2-0.6,0.2-0.9,0l0,0
				C48.3,10.5,48.3,10.1,48.6,9.8z"/>
			<path class="st0" d="M6.1,52.3l6.2-6.2c0.2-0.2,0.6-0.2,0.9,0l0,0c0.2,0.2,0.2,0.6,0,0.9L7,53.2c-0.2,0.2-0.6,0.2-0.9,0l0,0
				C5.8,52.9,5.8,52.5,6.1,52.3z"/>
		</g>
	</g>
</g>
</svg>
