<?xml version="1.0" encoding="utf-8"?>
<!-- Generator: Adobe Illustrator 27.8.1, SVG Export Plug-In . SVG Version: 6.00 Build 0)  -->
<!DOCTYPE svg PUBLIC "-//W3C//DTD SVG 1.1//EN" "http://www.w3.org/Graphics/SVG/1.1/DTD/svg11.dtd" [
	<!ENTITY ns_extend "http://ns.adobe.com/Extensibility/1.0/">
	<!ENTITY ns_ai "http://ns.adobe.com/AdobeIllustrator/10.0/">
	<!ENTITY ns_graphs "http://ns.adobe.com/Graphs/1.0/">
	<!ENTITY ns_vars "http://ns.adobe.com/Variables/1.0/">
	<!ENTITY ns_imrep "http://ns.adobe.com/ImageReplacement/1.0/">
	<!ENTITY ns_sfw "http://ns.adobe.com/SaveForWeb/1.0/">
	<!ENTITY ns_custom "http://ns.adobe.com/GenericCustomNamespace/1.0/">
	<!ENTITY ns_adobe_xpath "http://ns.adobe.com/XPath/1.0/">
]>
<svg version="1.1" id="Layer_1" xmlns:x="&ns_extend;" xmlns:i="&ns_ai;" xmlns:graph="&ns_graphs;"
	 xmlns="http://www.w3.org/2000/svg" xmlns:xlink="http://www.w3.org/1999/xlink" x="0px" y="0px" viewBox="0 0 61.5 56.6"
	 style="enable-background:new 0 0 61.5 56.6;" xml:space="preserve">
<style type="text/css">
	.st0{fill:#285BA7;stroke:#285BA7;stroke-width:0.25;stroke-miterlimit:10;}
</style>
<metadata>
	<sfw  xmlns="&ns_sfw;">
		<slices></slices>
		<sliceSourceBounds  bottomLeftOrigin="true" height="50.2" width="50.3" x="5.5" y="3"></sliceSourceBounds>
	</sfw>
</metadata>
<g>
	<path class="st0" d="M13.7,35.7h8.1c1.3,0,2.4-1.1,2.4-2.4c0-1.3-1.1-2.4-2.4-2.4h-8.1c-1.3,0-2.4,1.1-2.4,2.4
		C11.2,34.6,12.3,35.7,13.7,35.7z M13.7,32.5h8.1c0.4,0,0.8,0.4,0.8,0.8s-0.4,0.8-0.8,0.8h-8.1c-0.4,0-0.8-0.4-0.8-0.8
		S13.2,32.5,13.7,32.5z"/>
	<path class="st0" d="M53.2,21.2c1.3,0,2.4-1.1,2.4-2.4V5.9c0-1.3-1.1-2.4-2.4-2.4h-5.6c-0.8,0-1.5,0.4-1.9,1L44,6.8h-6.9
		c-1.3,0-2.4,1.1-2.4,2.4v3.2h-7.3c-0.4-5-4.6-8.9-9.6-8.9C12.4,3.5,8,7.8,8,13.2c0,5.1,3.9,9.2,8.9,9.6v4.9
		c-6.5,0.2-11.3,2.5-11.3,5.6v15.3c0,3.1,6.2,4.8,12.1,4.8s12.1-1.7,12.1-4.8v-4.8h4.9c0.4,5.4,4.9,9.7,10.4,9.7
		c5.8,0,10.5-4.7,10.5-10.5c0-5.5-4.3-10-9.7-10.4V21.2H53.2z M53.2,19.6H37.1c-0.4,0-0.8-0.4-0.8-0.8v-7.3H54v7.3
		C54,19.2,53.6,19.6,53.2,19.6z M37.1,8.3h7.7L47,5.4c0.2-0.2,0.4-0.3,0.6-0.3h5.6c0.4,0,0.8,0.4,0.8,0.8v4H36.2V9.1
		C36.2,8.7,36.6,8.3,37.1,8.3z M9.6,13.2c0-0.8,0.1-1.7,0.4-2.4h3.1c-0.1,0.8-0.2,1.6-0.2,2.4c0,0.9,0.1,1.7,0.2,2.4H10
		C9.8,14.8,9.6,14,9.6,13.2z M14.5,13.2c0-0.9,0.1-1.7,0.3-2.4h5.9c0.2,0.7,0.3,1.5,0.3,2.4s-0.1,1.7-0.3,2.4h-5.9
		C14.6,14.8,14.5,14,14.5,13.2z M17.7,5.4c0.6,0.6,1.7,1.9,2.4,3.7h-4.9C16,7.3,17.1,6,17.7,5.4z M20.1,17.2
		c-0.7,1.8-1.8,3.1-2.4,3.7c-0.6-0.6-1.7-1.9-2.4-3.7H20.1z M21.9,17.2h2.8c-1,1.8-2.8,3.2-4.8,3.7C20.5,20,21.3,18.8,21.9,17.2
		L21.9,17.2z M25.8,13.2c0,0.8-0.1,1.7-0.4,2.4h-3.1c0.1-0.8,0.2-1.6,0.2-2.4c0-0.9-0.1-1.7-0.2-2.4h3.1
		C25.6,11.5,25.8,12.3,25.8,13.2z M24.7,9.1h-2.8c-0.5-1.6-1.3-2.8-2-3.7C21.9,6,23.6,7.3,24.7,9.1z M15.6,5.4
		c-0.7,0.9-1.5,2.2-2,3.7h-2.8C11.8,7.3,13.5,6,15.6,5.4z M10.7,17.2h2.8c0.5,1.6,1.3,2.8,2,3.7C13.5,20.4,11.8,19,10.7,17.2z
		 M17.7,29.3c6.2,0,10.5,2.1,10.5,4c0,1.9-4.3,4-10.5,4s-10.5-2.1-10.5-4C7.2,31.4,11.5,29.3,17.7,29.3z M7.2,36.2
		c2.1,1.7,5.9,2.8,10.5,2.8s8.4-1.1,10.5-2.8V39c0,1.3-4.1,3.2-10.5,3.2S7.2,40.3,7.2,39V36.2z M7.2,41.5c2.2,1.5,6.4,2.3,10.5,2.3
		S26,43,28.2,41.5v2.3c0,1.3-4.1,3.2-10.5,3.2S7.2,45.1,7.2,43.8V41.5z M17.7,51.9c-6.4,0-10.5-1.9-10.5-3.2v-2.3
		c2.2,1.5,6.4,2.3,10.5,2.3s8.3-0.8,10.5-2.3v2.3C28.2,50,24.1,51.9,17.7,51.9z M38.9,49.4c0.7-2.3,2.9-3.9,5.4-3.9h1.6
		c2.5,0,4.6,1.6,5.4,3.9c-1.6,1.5-3.8,2.5-6.2,2.5S40.5,50.9,38.9,49.4z M45.1,43.8c-1.8,0-3.2-1.4-3.2-3.2s1.4-3.2,3.2-3.2
		s3.2,1.4,3.2,3.2C48.3,42.3,46.9,43.8,45.1,43.8z M54,43c0,1.8-0.6,3.5-1.5,4.9c-0.8-1.8-2.3-3.1-4.2-3.7c1-0.9,1.6-2.2,1.6-3.6
		c0-2.7-2.2-4.8-4.8-4.8c-2.7,0-4.8,2.2-4.8,4.8c0,1.4,0.6,2.7,1.6,3.6c-1.8,0.6-3.3,2-4.2,3.7c-1-1.4-1.5-3.1-1.5-4.9
		c0-4.9,4-8.9,8.9-8.9S54,38.1,54,43z M44.3,32.5c-5.1,0.4-9.2,4.5-9.6,9.6h-4.9v-8.9c0-3.1-4.8-5.4-11.3-5.6v-4.9
		c4.7-0.4,8.4-4.1,8.8-8.8h7.3v4.8c0,1.3,1.1,2.4,2.4,2.4h7.3L44.3,32.5z"/>
	<path class="st0" d="M50.8,6.7h1.6v1.6h-1.6V6.7z"/>
	<path class="st0" d="M47.5,6.7h1.6v1.6h-1.6V6.7z"/>
	<path class="st0" d="M37.9,16.4h1.6V18h-1.6V16.4z"/>
	<path class="st0" d="M41.1,16.4h1.6V18h-1.6V16.4z"/>
	<path class="st0" d="M44.3,16.4h1.6V18h-1.6V16.4z"/>
	<path class="st0" d="M18.5,12.3h1.6V14h-1.6V12.3z"/>
	<path class="st0" d="M15.3,12.3h1.6V14h-1.6C15.3,14,15.3,12.3,15.3,12.3z"/>
</g>
</svg>
