<?xml version="1.0" encoding="utf-8"?>
<!-- Generator: Adobe Illustrator 27.8.1, SVG Export Plug-In . SVG Version: 6.00 Build 0)  -->
<!DOCTYPE svg PUBLIC "-//W3C//DTD SVG 1.1//EN" "http://www.w3.org/Graphics/SVG/1.1/DTD/svg11.dtd" [
	<!ENTITY ns_extend "http://ns.adobe.com/Extensibility/1.0/">
	<!ENTITY ns_ai "http://ns.adobe.com/AdobeIllustrator/10.0/">
	<!ENTITY ns_graphs "http://ns.adobe.com/Graphs/1.0/">
	<!ENTITY ns_vars "http://ns.adobe.com/Variables/1.0/">
	<!ENTITY ns_imrep "http://ns.adobe.com/ImageReplacement/1.0/">
	<!ENTITY ns_sfw "http://ns.adobe.com/SaveForWeb/1.0/">
	<!ENTITY ns_custom "http://ns.adobe.com/GenericCustomNamespace/1.0/">
	<!ENTITY ns_adobe_xpath "http://ns.adobe.com/XPath/1.0/">
]>
<svg version="1.1" id="Layer_1" xmlns:x="&ns_extend;" xmlns:i="&ns_ai;" xmlns:graph="&ns_graphs;"
	 xmlns="http://www.w3.org/2000/svg" xmlns:xlink="http://www.w3.org/1999/xlink" x="0px" y="0px" viewBox="0 0 61.5 56.6"
	 style="enable-background:new 0 0 61.5 56.6;" xml:space="preserve">
<style type="text/css">
	.st0{fill:#285BA7;stroke:#285BA7;stroke-width:0.25;stroke-miterlimit:10;}
</style>
<metadata>
	<sfw  xmlns="&ns_sfw;">
		<slices></slices>
		<sliceSourceBounds  bottomLeftOrigin="true" height="50.1" width="50.4" x="5.6" y="3.3"></sliceSourceBounds>
	</sfw>
</metadata>
<g>
	<path class="st0" d="M5.9,37.9c0,0.4,0.3,0.7,0.7,0.7l2.9,0.6c0.1,0.5,0.2,1,0.4,1.5l-2.2,2c-0.3,0.2-0.4,0.6-0.2,1
		c0.4,0.8,0.8,1.6,1.3,2.3c0.2,0.3,0.6,0.4,0.9,0.3l2.8-0.9c0.3,0.4,0.7,0.7,1.1,1.1l-0.9,2.8c-0.1,0.3,0,0.7,0.3,0.9
		c0.7,0.5,1.5,0.9,2.3,1.3c0.3,0.2,0.7,0.1,1-0.2l2-2.2c0.5,0.2,1,0.3,1.5,0.4l0.6,2.9c0.1,0.4,0.4,0.6,0.7,0.7
		c0.4,0,0.9,0.1,1.3,0.1s0.9,0,1.3-0.1c0.4,0,0.7-0.3,0.7-0.7l0.6-2.9c0.5-0.1,1-0.2,1.5-0.4l2,2.2c0.2,0.3,0.6,0.4,1,0.2
		c0.8-0.4,1.6-0.9,2.3-1.3c0.3-0.2,0.4-0.6,0.3-0.9l-0.9-2.8c0.4-0.3,0.7-0.7,1.1-1.1l2.8,0.9c0.3,0.1,0.7,0,0.9-0.3
		c0.5-0.7,0.9-1.5,1.3-2.3c0.2-0.3,0.1-0.7-0.2-1l-2.2-2c0.2-0.5,0.3-1,0.4-1.5l2.9-0.6c0.4-0.1,0.6-0.4,0.7-0.7
		c0-0.4,0.1-0.9,0.1-1.3s0-0.9-0.1-1.3c0-0.4-0.3-0.7-0.7-0.7L35.3,34c-0.1-0.5-0.2-1-0.4-1.5l2.2-2c0.3-0.2,0.4-0.6,0.2-1
		c-0.4-0.8-0.9-1.6-1.3-2.3c-0.2-0.3-0.6-0.4-0.9-0.3l-2.8,0.9c-0.3-0.4-0.7-0.7-1.1-1.1l0.9-2.8c0.1-0.3,0-0.7-0.3-0.9
		c-0.7-0.5-1.5-0.9-2.3-1.3c-0.3-0.2-0.7-0.1-1,0.2l-2,2.2c-0.5-0.2-1-0.3-1.5-0.4l-0.6-2.9c-0.1-0.4-0.4-0.6-0.7-0.7
		c-0.9-0.1-1.8-0.1-2.7,0c-0.4,0-0.7,0.3-0.7,0.7l-0.6,2.9c-0.5,0.1-1,0.2-1.5,0.4l-2-2.2c-0.2-0.3-0.6-0.4-1-0.2
		c-0.8,0.4-1.6,0.8-2.3,1.3c-0.3,0.2-0.4,0.6-0.3,0.9l0.9,2.8c-0.4,0.3-0.7,0.7-1.1,1.1l-2.8-0.9c-0.4-0.1-0.7,0-0.9,0.3
		c-0.5,0.7-0.9,1.5-1.3,2.3c-0.2,0.3-0.1,0.7,0.2,1l2.2,2c-0.2,0.5-0.3,1-0.4,1.5l-2.9,0.6c-0.4,0.1-0.6,0.4-0.7,0.7
		c0,0.4-0.1,0.9-0.1,1.3S5.8,37.5,5.9,37.9L5.9,37.9z M7.5,36l2.8-0.6c0.3-0.1,0.6-0.3,0.6-0.7c0.1-0.8,0.3-1.5,0.6-2.2
		c0.1-0.3,0-0.7-0.2-0.9l-2.1-1.9c0.2-0.4,0.4-0.7,0.6-1l2.7,0.9c0.3,0.1,0.7,0,0.9-0.3c0.5-0.6,1-1.2,1.6-1.6
		c0.3-0.2,0.4-0.6,0.3-0.9l-0.9-2.7c0.3-0.2,0.7-0.4,1-0.6l1.9,2.1c0.2,0.3,0.6,0.3,0.9,0.2c0.7-0.3,1.5-0.5,2.2-0.6
		c0.3-0.1,0.6-0.3,0.7-0.6l0.6-2.8c0.4,0,0.8,0,1.2,0l0.6,2.8c0.1,0.3,0.3,0.6,0.7,0.6c0.8,0.1,1.5,0.3,2.2,0.6
		c0.3,0.1,0.7,0,0.9-0.2l1.9-2.1c0.4,0.2,0.7,0.4,1,0.6l-0.9,2.7c-0.1,0.3,0,0.7,0.3,0.9c0.6,0.5,1.2,1,1.6,1.6
		c0.2,0.3,0.6,0.4,0.9,0.3l2.7-0.9c0.2,0.3,0.4,0.7,0.6,1l-2.1,1.9c-0.3,0.2-0.3,0.6-0.2,0.9c0.3,0.7,0.5,1.5,0.6,2.2
		c0.1,0.3,0.3,0.6,0.6,0.7l2.8,0.6c0,0.2,0,0.4,0,0.6s0,0.4,0,0.6l-2.8,0.6c-0.3,0.1-0.6,0.3-0.6,0.7c-0.1,0.8-0.3,1.5-0.6,2.2
		c-0.1,0.3,0,0.7,0.2,0.9l2.1,1.9c-0.2,0.4-0.4,0.7-0.6,1l-2.7-0.9c-0.3-0.1-0.7,0-0.9,0.3c-0.5,0.6-1,1.2-1.6,1.6
		c-0.3,0.2-0.4,0.6-0.3,0.9l0.9,2.7c-0.3,0.2-0.7,0.4-1,0.6l-1.9-2.1c-0.2-0.3-0.6-0.3-0.9-0.2c-0.7,0.3-1.5,0.5-2.2,0.6
		c-0.3,0.1-0.6,0.3-0.7,0.6l-0.6,2.8c-0.4,0-0.8,0-1.2,0l-0.6-2.8C21,48.3,20.8,48,20.4,48c-0.8-0.1-1.5-0.3-2.2-0.6
		c-0.3-0.1-0.7,0-0.9,0.2l-1.9,2.1c-0.4-0.2-0.7-0.4-1-0.6l0.9-2.7c0.1-0.3,0-0.7-0.3-0.9c-0.6-0.5-1.2-1-1.6-1.6
		c-0.2-0.3-0.6-0.4-0.9-0.3l-2.7,0.9c-0.2-0.3-0.4-0.7-0.6-1l2.1-1.9c0.3-0.2,0.3-0.6,0.2-0.9c-0.3-0.7-0.5-1.5-0.6-2.2
		c-0.1-0.3-0.3-0.6-0.6-0.7l-2.8-0.6c0-0.2,0-0.4,0-0.6C7.5,36.4,7.5,36.2,7.5,36z"/>
	<path class="st0" d="M49.3,15.1c0.3-0.1,0.5-0.4,0.6-0.7C50,14,50,13.6,50,13.3s0-0.7-0.1-1.2c0-0.3-0.3-0.6-0.6-0.7L47,10.7
		c-0.1-0.2-0.1-0.4-0.2-0.6L47.9,8c0.2-0.3,0.1-0.6-0.1-0.9c-0.5-0.6-1-1.2-1.6-1.6c-0.3-0.2-0.6-0.2-0.9-0.1l-2.1,1.1
		c-0.2-0.1-0.4-0.2-0.6-0.2L41.9,4c-0.1-0.3-0.4-0.5-0.7-0.6c-0.8-0.1-1.5-0.1-2.3,0c-0.3,0-0.6,0.3-0.7,0.6l-0.7,2.3
		c-0.2,0.1-0.4,0.1-0.6,0.2l-2.1-1.1c-0.3-0.2-0.6-0.1-0.9,0.1c-0.6,0.5-1.2,1-1.6,1.6c-0.2,0.3-0.2,0.6-0.1,0.9l1.1,2.1
		c-0.1,0.2-0.2,0.4-0.2,0.6l-2.3,0.7c-0.3,0.1-0.5,0.4-0.6,0.7c0,0.4-0.1,0.8-0.1,1.2s0,0.7,0.1,1.2c0,0.3,0.3,0.6,0.6,0.7l2.3,0.7
		c0.1,0.2,0.1,0.4,0.2,0.6l-1.1,2.1c-0.2,0.3-0.1,0.6,0.1,0.9c0.5,0.6,1,1.2,1.6,1.6c0.3,0.2,0.6,0.2,0.9,0.1l2.1-1.1
		c0.2,0.1,0.4,0.2,0.6,0.2l0.7,2.3c0.1,0.3,0.4,0.5,0.7,0.6c0.4,0,0.8,0.1,1.2,0.1s0.7,0,1.2-0.1c0.3,0,0.6-0.3,0.7-0.6l0.7-2.3
		c0.2-0.1,0.4-0.1,0.6-0.2l2.1,1.1c0.3,0.2,0.6,0.1,0.9-0.1c0.6-0.5,1.2-1,1.6-1.6c0.2-0.3,0.2-0.6,0.1-0.9l-1.1-2.1
		c0.1-0.2,0.2-0.4,0.2-0.6L49.3,15.1z M46.1,14.4c-0.3,0.1-0.5,0.3-0.5,0.6c-0.1,0.4-0.3,0.7-0.4,1.1c-0.1,0.2-0.1,0.5,0,0.8l1.1,2
		c-0.2,0.2-0.4,0.4-0.6,0.6l-2-1.1c-0.2-0.1-0.5-0.1-0.8,0c-0.3,0.2-0.7,0.3-1.1,0.4c-0.3,0.1-0.5,0.3-0.6,0.5l-0.7,2.2
		c-0.3,0-0.6,0-0.9,0l-0.7-2.2c-0.1-0.3-0.3-0.5-0.6-0.5c-0.4-0.1-0.7-0.3-1.1-0.4c-0.2-0.1-0.5-0.1-0.8,0l-2,1.1
		c-0.2-0.2-0.4-0.4-0.6-0.6l1.1-2c0.1-0.2,0.1-0.5,0-0.8c-0.2-0.3-0.3-0.7-0.4-1.1c-0.1-0.3-0.3-0.5-0.5-0.6l-2.2-0.7
		c0-0.2,0-0.3,0-0.4s0-0.3,0-0.4l2.2-0.7c0.3-0.1,0.5-0.3,0.5-0.6c0.1-0.4,0.3-0.7,0.4-1.1c0.1-0.2,0.1-0.5,0-0.8l-1.1-2
		c0.2-0.2,0.4-0.4,0.6-0.6l2,1.1c0.2,0.1,0.5,0.1,0.8,0c0.3-0.2,0.7-0.3,1.1-0.4c0.3-0.1,0.5-0.3,0.6-0.5L39.5,5c0.3,0,0.6,0,0.9,0
		l0.7,2.2c0.1,0.3,0.3,0.5,0.6,0.5c0.3,0.1,0.7,0.3,1,0.4c0.2,0.1,0.5,0.1,0.8,0l2-1.1c0.2,0.2,0.4,0.4,0.6,0.6l-1.1,2
		c-0.1,0.2-0.1,0.5,0,0.8c0.2,0.3,0.3,0.7,0.4,1.1c0.1,0.3,0.3,0.5,0.5,0.6l2.2,0.7c0,0.2,0,0.3,0,0.4s0,0.3,0,0.4L46.1,14.4z"/>
	<path class="st0" d="M55.2,30.7l-1.4-0.5c-0.1-0.2-0.2-0.5-0.3-0.7l0.7-1.4c0.1-0.3,0.1-0.6-0.1-0.9c-0.4-0.5-0.9-1-1.4-1.4
		c-0.2-0.2-0.6-0.2-0.9-0.1l-1.4,0.7c-0.2-0.1-0.4-0.2-0.7-0.3l-0.5-1.4c-0.1-0.3-0.4-0.5-0.7-0.5c-0.7-0.1-1.3-0.1-2,0
		c-0.3,0-0.6,0.2-0.7,0.5l-0.5,1.4c-0.2,0.1-0.5,0.2-0.7,0.3l-1.4-0.7c-0.3-0.1-0.6-0.1-0.9,0.1c-0.5,0.4-1,0.9-1.4,1.4
		c-0.2,0.2-0.2,0.6-0.1,0.9l0.7,1.4c-0.1,0.2-0.2,0.4-0.3,0.7l-1.4,0.5c-0.3,0.1-0.5,0.4-0.5,0.7c0,0.4-0.1,0.7-0.1,1s0,0.6,0.1,1
		c0,0.3,0.2,0.6,0.5,0.7l1.4,0.5c0.1,0.2,0.2,0.5,0.3,0.7l-0.7,1.4c-0.1,0.3-0.1,0.6,0.1,0.9c0.4,0.5,0.9,1,1.4,1.4
		c0.2,0.2,0.6,0.2,0.9,0.1l1.4-0.7c0.2,0.1,0.4,0.2,0.7,0.3l0.5,1.4c0.1,0.3,0.4,0.5,0.7,0.5c0.4,0,0.7,0.1,1,0.1s0.6,0,1-0.1
		c0.3,0,0.6-0.2,0.7-0.5l0.5-1.4c0.2-0.1,0.5-0.2,0.7-0.3l1.4,0.7c0.3,0.1,0.6,0.1,0.9-0.1c0.5-0.4,1-0.9,1.4-1.4
		c0.2-0.2,0.2-0.6,0.1-0.9l-0.7-1.4c0.1-0.2,0.2-0.4,0.3-0.7l1.4-0.5c0.3-0.1,0.5-0.4,0.5-0.7c0-0.4,0.1-0.7,0.1-1s0-0.6-0.1-1
		C55.7,31.1,55.5,30.9,55.2,30.7L55.2,30.7z M54.1,32.7l-1.3,0.5c-0.3,0.1-0.5,0.3-0.5,0.6c-0.1,0.4-0.3,0.8-0.5,1.1
		c-0.1,0.2-0.1,0.5,0,0.8l0.6,1.3c-0.1,0.2-0.3,0.3-0.4,0.4l-1.3-0.6c-0.2-0.1-0.5-0.1-0.8,0c-0.3,0.2-0.7,0.4-1.1,0.5
		c-0.3,0.1-0.5,0.3-0.6,0.5l-0.5,1.3c-0.2,0-0.4,0-0.6,0l-0.5-1.3c-0.1-0.3-0.3-0.5-0.6-0.5c-0.4-0.1-0.8-0.3-1.1-0.5
		c-0.2-0.1-0.5-0.1-0.8,0L43,37.4c-0.2-0.1-0.3-0.3-0.4-0.4l0.6-1.3c0.1-0.2,0.1-0.5,0-0.8c-0.2-0.3-0.4-0.7-0.5-1.1
		c-0.1-0.3-0.3-0.5-0.5-0.6l-1.3-0.5c0-0.1,0-0.2,0-0.3s0-0.2,0-0.3l1.3-0.5c0.3-0.1,0.5-0.3,0.5-0.6c0.1-0.4,0.3-0.8,0.5-1.1
		c0.1-0.2,0.1-0.5,0-0.8L42.6,28c0.1-0.2,0.3-0.3,0.4-0.4l1.3,0.6c0.2,0.1,0.5,0.1,0.8,0c0.3-0.2,0.7-0.4,1.1-0.5
		c0.3-0.1,0.5-0.3,0.6-0.5l0.5-1.3c0.2,0,0.4,0,0.6,0l0.5,1.3c0.1,0.3,0.3,0.5,0.6,0.5c0.4,0.1,0.8,0.3,1.1,0.5
		c0.2,0.1,0.5,0.1,0.8,0l1.3-0.6c0.2,0.1,0.3,0.3,0.4,0.4L52,29.3c-0.1,0.2-0.1,0.5,0,0.8c0.2,0.3,0.4,0.7,0.5,1.1
		c0.1,0.3,0.3,0.5,0.5,0.6l1.3,0.5c0,0.1,0,0.2,0,0.3S54.1,32.6,54.1,32.7L54.1,32.7z"/>
	<path class="st0" d="M22.5,45.8c5.1,0,9.2-4.1,9.2-9.2s-4.1-9.2-9.2-9.2s-9.2,4.1-9.2,9.2S17.4,45.8,22.5,45.8z M22.5,29.1
		c4.1,0,7.5,3.4,7.5,7.5s-3.4,7.5-7.5,7.5S15,40.7,15,36.6S18.3,29.1,22.5,29.1z"/>
	<path class="st0" d="M5.8,22.7l1.3,1.1c3.8-4.6,9.4-7.2,15.4-7.2c0.4,0,0.8,0,1.3,0.1l-1,1l1.2,1.2l2.5-2.5c0.3-0.3,0.3-0.9,0-1.2
		L24,12.7l-1.2,1.2l1.1,1.1c-0.5,0-0.9-0.1-1.4-0.1C16,14.9,10,17.8,5.8,22.7L5.8,22.7z"/>
	<path class="st0" d="M40,9.1c-2.3,0-4.2,1.9-4.2,4.2s1.9,4.2,4.2,4.2s4.2-1.9,4.2-4.2S42.3,9.1,40,9.1z M40,15.8
		c-1.4,0-2.5-1.1-2.5-2.5s1.1-2.5,2.5-2.5s2.5,1.1,2.5,2.5S41.4,15.8,40,15.8z"/>
	<path class="st0" d="M47.5,29.1c-1.8,0-3.3,1.5-3.3,3.3c0,1.8,1.5,3.3,3.3,3.3s3.3-1.5,3.3-3.3C50.8,30.6,49.3,29.1,47.5,29.1z
		 M47.5,34.1c-0.9,0-1.7-0.7-1.7-1.7s0.7-1.7,1.7-1.7c0.9,0,1.7,0.7,1.7,1.7S48.4,34.1,47.5,34.1z"/>
	<path class="st0" d="M55.1,5.8L51,5c-0.5-0.1-0.9,0.2-1,0.7l-0.8,4.2l1.6,0.3L51.2,8c0.8,1.7,1.2,3.5,1.2,5.4
		c0,2.9-0.9,5.6-2.7,7.8l1.3,1c2-2.5,3.1-5.6,3.1-8.9c0-2.2-0.5-4.3-1.5-6.3l2.1,0.4L55.1,5.8z"/>
</g>
</svg>
