<svg xmlns="http://www.w3.org/2000/svg" width="842" height="650" viewBox="0 0 842 650" fill="none"><mask id="mask0_1448_7987" style="mask-type:alpha" maskUnits="userSpaceOnUse" x="0" y="0" width="842" height="650"><rect width="842" height="650" fill="#D9D9D9"></rect></mask><g mask="url(#mask0_1448_7987)"><path d="M357.797 342.608L348.313 361.373L315.757 426.348C305.594 441.533 291.326 446.438 277.202 442.132C255.321 435.467 245.087 410.339 255.611 390.033L304.78 294.887L357.797 342.608Z" fill="#72ABFF"></path><path d="M158.885 628.398L121.021 549.704C121.9 530.357 116.875 523.31 108.375 523.458L95.5127 496.727L107.514 490.972C117.406 484.097 128.099 482.241 139.114 482.395L139.438 482.355L161.395 479.667L176.817 472.268L197.409 515.06L181.083 526.417L172.397 537.91L170.177 540.847L170.889 552.562L172.212 574.301C181.608 601.026 184.026 612.056 171.488 619.522L169.911 620.632L158.885 628.398Z" fill="#FFB0B0"></path><path d="M158.885 628.398L121.021 549.704C121.9 530.357 116.875 523.31 108.375 523.458L95.5127 496.727L107.514 490.972C117.406 484.097 128.099 482.241 139.114 482.395L139.438 482.355L161.395 479.667L176.817 472.268L197.409 515.06L181.083 526.417L172.397 537.91L170.177 540.847L170.889 552.562L172.212 574.301C181.608 601.026 184.026 612.056 171.488 619.522L169.911 620.632L158.885 628.398Z" stroke="#231F20" stroke-width="4" stroke-linecap="round" stroke-linejoin="round"></path><path d="M158.885 628.398L121.021 549.704C121.9 530.357 116.875 523.31 108.375 523.458L95.5127 496.727L107.514 490.972C117.406 484.097 128.099 482.241 139.114 482.395L139.438 482.355L137.485 510.886L172.391 537.9C173.34 538.633 174.118 539.562 174.674 540.624C175.229 541.685 175.548 542.855 175.609 544.051C175.67 545.247 175.471 546.443 175.027 547.555C174.582 548.668 173.902 549.671 173.033 550.496L170.874 552.543L172.197 574.283C181.608 601.026 184.026 612.056 171.488 619.522L169.911 620.632L158.885 628.398Z" fill="#231F20"></path><path d="M158.885 628.398L121.021 549.704C121.9 530.357 116.875 523.31 108.375 523.458L95.5127 496.727L107.514 490.972C117.406 484.097 128.099 482.241 139.114 482.395L139.438 482.355L137.485 510.886L172.391 537.9C173.34 538.633 174.118 539.562 174.674 540.624C175.229 541.685 175.548 542.855 175.609 544.051C175.67 545.247 175.471 546.443 175.027 547.555C174.582 548.668 173.902 549.671 173.033 550.496L170.874 552.543L172.197 574.283C181.608 601.026 184.026 612.056 171.488 619.522L169.911 620.632L158.885 628.398Z" stroke="#231F20" stroke-width="4" stroke-linecap="round" stroke-linejoin="round"></path><path d="M158.885 628.398L121.021 549.704C121.9 530.357 116.875 523.31 108.375 523.458L95.5127 496.727L107.514 490.972L169.911 620.645L158.885 628.398Z" stroke="#231F20" stroke-width="4" stroke-linecap="round" stroke-linejoin="round"></path><path d="M158.885 628.398L121.021 549.704C121.9 530.357 116.875 523.31 108.375 523.458L95.5127 496.727L107.514 490.972L169.911 620.645L158.885 628.398Z" fill="#4F3DEA"></path><path d="M279.349 357.821L141.587 482.069L190.706 532.706L320.109 419.054L279.349 357.821Z" fill="#72ABFF"></path><path d="M633.517 63.1748L599.984 119.21L585.614 102.101C561.953 107.341 537.633 113.492 518.472 128.32C495.003 146.483 453.7 193.304 434.549 215.981C411.579 243.208 377.796 261.852 342.227 263.711C306.657 265.57 271.686 251.198 236.123 253.23C227.195 253.748 218.354 255.271 209.767 257.771C170.904 269.016 137.669 298.987 114.919 333.298C89.8766 371.052 -21.2759 576.364 -37.2223 618.678L-58.2579 601.044L-103.133 563.416C-85.3451 521.768 36.7755 316.044 61.0282 279.458C88.7723 237.597 132.074 202.213 182.245 199.371C217.814 197.355 252.779 211.723 288.348 209.852C323.918 207.981 357.698 189.349 380.668 162.122C399.791 139.442 412.338 110.819 435.807 92.6583C454.968 77.8271 508.072 53.5073 531.732 48.245L519.416 29.6714L633.517 63.1748Z" fill="white"></path><path d="M633.517 63.1748L599.984 119.21L585.614 102.101C561.953 107.341 537.633 113.492 518.472 128.32C495.003 146.483 453.7 193.304 434.549 215.981C411.579 243.208 377.796 261.852 342.227 263.711C306.657 265.57 271.686 251.198 236.123 253.23C227.195 253.748 218.354 255.271 209.767 257.771C170.904 269.016 137.669 298.987 114.919 333.298C89.8766 371.052 -21.2759 576.364 -37.2223 618.678L-58.2579 601.044L-103.133 563.416C-85.3451 521.768 36.7755 316.044 61.0282 279.458C88.7723 237.597 132.074 202.213 182.245 199.371C217.814 197.355 252.779 211.723 288.348 209.852C323.918 207.981 357.698 189.349 380.668 162.122C399.791 139.442 412.338 110.819 435.807 92.6583C454.968 77.8271 508.072 53.5073 531.732 48.245L519.416 29.6714L633.517 63.1748Z" fill="white"></path><path d="M524.79 257.915C525.854 257.915 527.004 257.869 527.834 257.2C528.92 256.322 529.034 254.608 528.377 253.375C527.72 252.141 526.48 251.325 525.194 250.779C516.172 246.966 507.048 243.275 497.998 239.481C491.601 236.626 485.044 237.014 478.258 237.363C470.381 237.773 451.177 239.126 443.352 240.208L379.897 212.633L386.164 200.037L413.307 142.602L378.065 121.682L338.757 201.954L329.643 222.529C328.699 224.66 328.223 226.968 328.249 229.299C328.275 231.629 328.801 233.927 329.792 236.037C330.783 238.146 332.216 240.019 333.994 241.527C335.771 243.035 337.852 244.145 340.096 244.78L441.378 273.449C451.171 277.79 466.504 277.016 482.654 275.484C488.671 278.517 495.179 280.645 501.391 283.25C504.346 284.483 507.323 285.716 510.459 286.379C511.52 286.6 512.652 286.745 513.673 286.379C514.694 286.012 515.552 284.982 515.379 283.912C515.225 282.987 514.386 282.322 513.593 281.798C505.321 276.332 495.651 273.474 487.508 267.811C492.592 269.719 497.8 271.276 503.097 272.472C507.48 273.462 512.878 275.096 517.375 274.701C518.389 274.615 519.487 274.393 520.151 273.622C521.144 272.457 520.604 270.539 519.426 269.556C517.291 267.771 513.124 266.902 510.441 265.857L501.388 262.321L489.162 257.546L520.314 266.735C522.359 267.256 525.089 267.497 526.036 265.61C526.612 264.469 526.137 263.024 525.252 262.102C524.367 261.18 523.152 260.665 521.97 260.172C511.863 255.955 501.478 252.351 491.216 248.513C493.532 248.889 522.436 257.888 524.79 257.915Z" fill="white"></path><path d="M524.79 257.915C525.854 257.915 527.004 257.869 527.834 257.2C528.92 256.322 529.034 254.608 528.377 253.375C527.72 252.141 526.48 251.325 525.194 250.779C516.172 246.966 507.048 243.275 497.998 239.481C491.601 236.626 485.044 237.014 478.258 237.363C470.381 237.773 451.177 239.126 443.352 240.208L379.897 212.633L386.164 200.037L413.307 142.602L378.065 121.682L338.757 201.954L329.643 222.529C328.699 224.66 328.223 226.968 328.249 229.299C328.275 231.629 328.801 233.927 329.792 236.037C330.783 238.146 332.216 240.019 333.994 241.527C335.771 243.035 337.852 244.145 340.096 244.78L441.378 273.449C451.171 277.79 466.504 277.016 482.654 275.484C488.671 278.517 495.179 280.645 501.391 283.25C504.346 284.483 507.323 285.716 510.459 286.379C511.52 286.6 512.652 286.745 513.673 286.379C514.694 286.012 515.552 284.982 515.379 283.912C515.225 282.987 514.386 282.322 513.593 281.798C505.321 276.332 495.651 273.474 487.508 267.811C492.592 269.719 497.8 271.276 503.097 272.472C507.48 273.462 512.878 275.096 517.375 274.701C518.389 274.615 519.487 274.393 520.151 273.622C521.144 272.457 520.604 270.539 519.426 269.556C517.291 267.771 513.124 266.902 510.441 265.857L501.388 262.321L489.162 257.546L520.314 266.735C522.359 267.256 525.089 267.497 526.036 265.61C526.612 264.469 526.137 263.024 525.252 262.102C524.367 261.18 523.152 260.665 521.97 260.172C511.863 255.955 501.478 252.351 491.216 248.513C493.532 248.889 522.436 257.888 524.79 257.915Z" stroke="#231F20" stroke-width="3.77" stroke-linecap="round" stroke-linejoin="round"></path><path d="M372.603 382.964C366.832 375.714 355.379 359.483 348.1 353.715C341.395 348.397 334.868 343.169 327.034 339.565C307.112 330.394 284.315 327.234 262.551 332.561C245.331 336.766 229.999 345.688 216.251 357.192C199.904 370.867 185.808 388.196 173.409 405.61C148.823 440.137 32.3627 625.993 12.9525 660.729L-21.3953 631.937L-37.2183 618.681L-58.2539 601.047C-37.7365 564.326 85.1028 367.091 109.537 332.792C132.362 300.732 160.991 268.949 198.677 259.731C202.327 258.84 206.029 258.179 209.762 257.752C231.146 255.286 252.894 260.443 271.397 270.965C275.023 273.225 278.613 275.558 282.168 277.963C315.298 300.427 349.214 340.068 372.603 382.964Z" fill="white"></path><path d="M770.205 87.6242C755.878 107.292 764.567 133.696 765.795 157.492C766.945 179.771 760.628 202.691 748.096 221.705C740.549 233.158 730.515 243.411 718.07 248.96C692.423 260.409 663.652 249.833 636.025 251.223C601.729 252.949 569.621 273.761 547.283 300.877C524.946 327.993 511.147 360.963 499.916 394.016C490.219 422.562 481.049 453.381 458.141 473.243C452.552 478.086 446.001 482.223 438.802 483.16C429.111 484.421 420.024 479.584 413.485 472.37C411.486 470.164 409.728 467.751 408.242 465.172C401.981 454.318 399.778 441.534 396.463 429.338C394.227 421.089 391.385 413.016 387.962 405.185C390.171 403.741 392.277 402.144 394.263 400.406C417.171 380.55 426.341 349.732 436.035 321.18C447.266 288.13 461.062 255.16 483.403 228.041C505.743 200.922 537.848 180.113 572.144 178.387C599.78 176.996 628.548 187.573 654.189 176.127C666.622 170.578 676.668 160.325 684.215 148.872C696.744 129.858 689.807 106.022 688.657 83.7523C687.423 59.9596 695.982 39.2835 710.313 19.631L693.234 3.60066L801.293 21.2494L784.421 104.838L770.205 87.6242Z" fill="url(#paint0_linear_1448_7987)"></path><path d="M372.603 382.964C366.832 375.714 356.095 360.121 348.819 354.35C342.11 349.032 334.868 343.169 327.034 339.553C307.112 330.382 284.315 327.222 262.551 332.549C245.331 336.754 229.999 345.675 216.251 357.18C199.904 370.855 185.808 388.183 173.409 405.598C148.823 440.125 32.3627 625.981 12.9525 660.717L-21.3953 631.937L-37.2183 618.681L-58.2539 601.047C-37.7365 564.326 85.1028 367.091 109.537 332.792C132.362 300.732 160.991 268.949 198.677 259.731C202.327 258.84 206.029 258.179 209.762 257.752C231.146 255.286 252.894 260.443 271.397 270.965C275.023 273.225 278.613 275.558 282.168 277.963C315.298 300.427 349.214 340.068 372.603 382.964Z" fill="url(#paint1_linear_1448_7987)"></path><path d="M448.848 259.457C451.37 260.783 454.176 261.482 457.027 261.495C459.877 261.507 462.689 260.832 465.223 259.528C467.906 258.116 470.235 255.998 473.119 255.061C480.944 252.524 489.537 251.71 497.529 249.654C499.398 249.173 501.69 248.112 501.566 246.198C501.455 244.422 499.355 243.581 497.606 243.251C491.746 242.144 485.83 242.514 479.979 242.018C473.054 241.429 466.503 240.886 459.563 241.941" fill="white"></path><path d="M448.848 259.457C451.37 260.783 454.176 261.482 457.027 261.495C459.877 261.507 462.689 260.832 465.223 259.528C467.906 258.116 470.235 255.998 473.119 255.061C480.944 252.524 489.537 251.71 497.529 249.654C499.398 249.173 501.69 248.112 501.566 246.198C501.455 244.422 499.355 243.581 497.606 243.251C491.746 242.144 485.83 242.514 479.979 242.018C473.054 241.429 466.503 240.886 459.563 241.941" fill="#FFB0B0"></path><path d="M315.728 145.768L419.463 198.791C420.804 199.477 421.819 200.665 422.288 202.096C422.756 203.527 422.64 205.085 421.964 206.43L389.387 271.261C388.711 272.605 387.532 273.629 386.105 274.108C384.678 274.587 383.119 274.484 381.768 273.819L276.865 222.245C276.186 221.911 275.581 221.447 275.084 220.877C274.586 220.308 274.207 219.645 273.969 218.928C273.73 218.211 273.636 217.454 273.693 216.7C273.749 215.946 273.955 215.211 274.299 214.538L308.064 148.259C308.751 146.914 309.944 145.897 311.381 145.43C312.818 144.963 314.381 145.084 315.728 145.768V145.768Z" fill="white"></path><path d="M315.728 145.768L419.463 198.791C420.804 199.477 421.819 200.665 422.288 202.096C422.756 203.527 422.64 205.085 421.964 206.43L389.387 271.261C388.711 272.605 387.532 273.629 386.105 274.108C384.678 274.587 383.119 274.484 381.768 273.819L276.865 222.245C276.186 221.911 275.581 221.447 275.084 220.877C274.586 220.308 274.207 219.645 273.969 218.928C273.73 218.211 273.636 217.454 273.693 216.7C273.749 215.946 273.955 215.211 274.299 214.538L308.064 148.259C308.751 146.914 309.944 145.897 311.381 145.43C312.818 144.963 314.381 145.084 315.728 145.768V145.768Z" fill="#F3D1B1"></path><path d="M376.8 484.692C397.123 506.256 438.771 509.931 448.317 480.068L461.516 288.355L470.109 243.988L356.85 206.168L333.957 241.127C327.236 248.272 321.944 256.636 318.366 265.767L310.127 282.214L304.77 294.89C321.573 312.958 336.585 333.674 353.262 351.613L368.614 328.036L371.8 323.15L376.8 484.692Z" fill="#72ABFF"></path><path d="M457.303 65.191C454.835 58.7172 454.435 52.5117 454.987 45.1285C455.384 39.783 458.346 33.377 461.137 28.9502C465.248 22.4332 471.901 17.1617 479.144 14.5506C486.386 11.9395 495.732 14.1869 502.647 17.1186C506.999 18.9436 510.838 21.8037 513.832 25.4502C516.826 29.0967 518.883 33.419 519.824 38.0412C520.523 41.5455 520.547 45.1511 519.895 48.6644C519.747 49.4782 519.528 50.3907 519.278 51.3525C518.325 54.8854 516.789 59.1334 515.755 61.9942C517.427 62.0559 521.819 61.5595 522.393 63.739C523.214 66.8434 515.743 67.3613 513.948 67.8021C511.339 74.1803 509.59 83.6505 502.125 85.3276C496.817 86.5175 494.414 86.7241 490.291 83.1943L482.86 101.974C464.264 114.786 448.044 109.629 438.568 97.4705C447.106 89.3043 453.087 78.2434 457.303 65.191Z" fill="#FFB0B0"></path><path d="M457.303 65.191C454.835 58.7172 454.435 52.5117 454.987 45.1285C455.384 39.783 458.346 33.377 461.137 28.9502C465.248 22.4332 471.901 17.1617 479.144 14.5506C486.386 11.9395 495.732 14.1869 502.647 17.1186C506.999 18.9436 510.838 21.8037 513.832 25.4502C516.826 29.0967 518.883 33.419 519.824 38.0412C520.523 41.5455 520.547 45.1511 519.895 48.6644C519.747 49.4782 519.528 50.3907 519.278 51.3525C518.325 54.8854 516.789 59.1334 515.755 61.9942C517.427 62.0559 521.819 61.5595 522.393 63.739C523.214 66.8434 515.743 67.3613 513.948 67.8021C511.339 74.1803 509.59 83.6505 502.125 85.3276C496.817 86.5175 494.414 86.7241 490.291 83.1943L482.86 101.974C464.264 114.786 448.044 109.629 438.568 97.4705C447.106 89.3043 453.087 78.2434 457.303 65.191Z" stroke="#231F20" stroke-linecap="round" stroke-linejoin="round"></path><path d="M507.155 66.3315C508.42 68.9395 510.189 70.6217 512.464 71.378" stroke="#231F20" stroke-width="2" stroke-linecap="round" stroke-linejoin="round"></path><path d="M512.205 57.7145C511.48 58.3309 510.219 58.0073 509.389 57.0179C508.559 56.0286 508.464 54.731 509.192 54.1238C509.92 53.5166 511.175 53.831 512.008 54.8204C512.841 55.8097 512.918 57.1073 512.205 57.7145Z" fill="#231F20"></path><path d="M517.555 49.7769C517.515 50.529 515.751 51.0468 513.617 50.9266C511.482 50.8064 509.786 50.1006 509.829 49.3454C509.872 48.5903 511.633 48.0756 513.768 48.1958C515.902 48.316 517.599 49.0218 517.555 49.7769Z" fill="#231F20"></path><path d="M527.529 40.8404C527.15 41.0562 526.754 41.2397 526.344 41.3891C524.259 42.1475 521.967 42.0951 519.765 41.8176C519.022 41.722 507.357 39.5086 508.001 38.3341C506.589 40.9051 505.842 43.806 504.325 46.3246C501.839 50.474 498.819 50.8439 494.482 50.2767C493.067 50.0917 492.061 50.6374 490.852 51.2662C486.472 53.5352 482.132 55.8904 477.771 58.187C476.176 61.7754 474.316 65.1417 471.294 67.7189C469.447 69.3078 467.234 70.4137 464.854 70.9373C463.254 71.2892 461.597 71.3007 459.993 70.9712C457.803 70.5057 455.036 69.7381 455.165 67.1178C455.218 66.0419 455.89 65.04 455.946 64.0042C456.1 61.2297 454.641 58.0637 453.996 55.391C453.14 52.0216 452.611 48.5777 452.414 45.1069C452.167 39.5364 453.157 33.784 456.091 29.0427C457.306 27.079 458.928 25.2447 461.088 24.4186C460.779 22.2051 462.013 20.078 463.407 18.327C466.148 14.8891 469.627 12.1101 473.585 10.1947C477.49 8.30499 482.7 7.11197 487.033 7.00407C491.811 6.88076 496.416 8.59786 501.114 9.49494C508.35 10.876 515.968 10.3304 522.933 12.7442C525.422 13.6042 528.031 15.1364 528.645 17.6981C529.176 19.9054 528.028 22.1373 526.946 24.1288C527.947 24.2254 528.901 24.5999 529.701 25.21C530.5 25.8201 531.113 26.6415 531.47 27.5814C531.842 28.7432 531.957 29.9715 531.81 31.1821C531.763 31.4904 530.443 34.3666 530.178 34.0337C530.77 34.7766 530.878 35.8155 530.693 36.7496C530.363 38.5067 529.099 39.9649 527.529 40.8404Z" fill="#1C1C1E"></path><path d="M527.529 40.8404C527.15 41.0562 526.754 41.2397 526.344 41.3891C524.259 42.1475 521.967 42.0951 519.765 41.8176C519.022 41.722 507.357 39.5086 508.001 38.3341C506.589 40.9051 505.842 43.806 504.325 46.3246C501.839 50.474 498.819 50.8439 494.482 50.2767C493.067 50.0917 492.061 50.6374 490.852 51.2662C486.472 53.5352 482.132 55.8904 477.771 58.187C476.176 61.7754 474.316 65.1417 471.294 67.7189C469.447 69.3078 467.234 70.4137 464.854 70.9373C463.254 71.2892 461.597 71.3007 459.993 70.9712C457.803 70.5057 455.036 69.7381 455.165 67.1178C455.218 66.0419 455.89 65.04 455.946 64.0042C456.1 61.2297 454.641 58.0637 453.996 55.391C453.14 52.0216 452.611 48.5777 452.414 45.1069C452.167 39.5364 453.157 33.784 456.091 29.0427C457.306 27.079 458.928 25.2447 461.088 24.4186C460.779 22.2051 462.013 20.078 463.407 18.327C466.148 14.8891 469.627 12.1101 473.585 10.1947C477.49 8.30499 482.7 7.11197 487.033 7.00407C491.811 6.88076 496.416 8.59786 501.114 9.49494C508.35 10.876 515.968 10.3304 522.933 12.7442C525.422 13.6042 528.031 15.1364 528.645 17.6981C529.176 19.9054 528.028 22.1373 526.946 24.1288C527.947 24.2254 528.901 24.5999 529.701 25.21C530.5 25.8201 531.113 26.6415 531.47 27.5814C531.842 28.7432 531.957 29.9715 531.81 31.1821C531.763 31.4904 530.443 34.3666 530.178 34.0337C530.77 34.7766 530.878 35.8155 530.693 36.7496C530.363 38.5067 529.099 39.9649 527.529 40.8404Z" stroke="#231F20" stroke-width="4" stroke-linecap="round" stroke-linejoin="round"></path><path d="M387.402 186.91L396.926 164.332L435.694 95.8582C412.299 77.1583 381.27 84.7603 370.108 115.797L345.124 156.08L387.402 186.91Z" fill="#231F20"></path><path d="M329.528 234.653L382.272 130.863L435.693 95.8552L475.433 98.2289L487.564 93.4013L494.041 124.432L516.067 154.381C512.365 176.596 503.421 188.665 490.725 212.451L465.631 289.615L329.528 234.653Z" fill="#231F20"></path><path d="M435.693 95.8552L475.433 98.2289L487.564 93.4013L494.041 124.432L516.067 154.381C512.365 176.596 503.421 188.665 490.725 212.451L465.631 289.615L329.528 234.653L382.272 130.863" stroke="#231F20" stroke-width="4" stroke-linecap="round" stroke-linejoin="round"></path><path d="M725.427 94.4248C722.261 102.029 718.971 109.584 715.557 117.089C715.116 118.06 714.558 119.133 713.534 119.426C712.562 119.706 711.501 119.118 710.931 118.291C710.36 117.465 710.175 116.423 710.049 115.418C709.324 109.621 710.067 103.736 712.208 98.2998L725.427 94.4248Z" fill="#FFA0A0"></path><path d="M725.874 92.8618C725.565 92.1681 724.763 91.8691 724.023 91.7458C722.796 91.5505 721.542 91.6261 720.348 91.9675C719.153 92.3089 718.048 92.9078 717.111 93.7219C718.036 92.2853 719.285 91.0861 720.155 89.6218C721.025 88.1575 721.451 86.2308 720.578 84.7788C719.705 83.3268 717.802 82.7873 716.139 83.0432C714.477 83.2991 712.984 84.19 711.543 85.0655C712.696 83.6581 713.695 82.1317 714.523 80.5123C715.288 79.0171 715.735 76.8376 714.31 75.9436C713.821 75.6854 713.275 75.552 712.722 75.5552C711.112 75.4646 709.498 75.5995 707.925 75.9559C713.335 70.407 721.993 67.2472 726.537 60.6963C727.154 59.8208 727.743 58.8467 727.65 57.7739C727.533 56.3835 726.176 55.3292 724.788 55.1782C723.4 55.0271 722.012 55.6005 720.852 56.3589C712.632 61.6859 704.462 67.1639 696.242 72.5279C690.289 76.2272 686.933 81.8594 683.426 87.6642C679.348 94.4124 667.079 106.324 663.596 113.408L605.199 150.799L593.941 160.084L526.032 106.414L500.703 147.414L574.494 207.771C579.802 212.112 586.484 214.418 593.341 214.276C600.197 214.135 606.778 211.554 611.902 206.998L625.961 194.494L692.621 138.428C700.406 133.566 705.806 125.191 710.51 117.533C712.978 113.504 714.921 108.007 718.122 104.567C721.324 101.127 724.618 99.4126 725.867 94.3939C726.035 93.8973 726.037 93.3597 725.874 92.8618V92.8618Z" fill="#FFB0B0"></path><path d="M707.92 75.9559L701.261 80.277" stroke="#231F20" stroke-width="2" stroke-linecap="round" stroke-linejoin="round"></path><path d="M711.538 85.0655L706.584 88.1815" stroke="#231F20" stroke-width="2" stroke-linecap="round" stroke-linejoin="round"></path><path d="M717.103 93.7219L712.52 96.7886" stroke="#231F20" stroke-width="2" stroke-linecap="round" stroke-linejoin="round"></path><path d="M497.448 52.1908C497.76 46.5776 493.46 41.7744 487.844 41.4626C482.228 41.1507 477.422 45.4483 477.11 51.0615C476.798 56.6747 481.098 61.4779 486.714 61.7897C492.33 62.1016 497.136 57.804 497.448 52.1908Z" fill="#FFB0B0"></path><path d="M497.448 52.1908C497.76 46.5776 493.46 41.7744 487.844 41.4626C482.228 41.1507 477.422 45.4483 477.11 51.0615C476.798 56.6747 481.098 61.4779 486.714 61.7897C492.33 62.1016 497.136 57.804 497.448 52.1908Z" stroke="#231F20" stroke-linecap="round" stroke-linejoin="round"></path><path d="M482.657 49.3363L489.36 56.3188" stroke="#231F20" stroke-linecap="round" stroke-linejoin="round"></path><path d="M486.287 53.1189L490.63 47.8936" stroke="#231F20" stroke-linecap="round" stroke-linejoin="round"></path><path d="M405.962 471.859C376.753 450.72 354.431 425.001 342.707 392.24C336.998 381.42 335.039 368.651 332.047 356.48C330.638 350.756 328.963 345.096 327.032 339.562C334.272 343.152 341.036 347.632 347.164 352.898C353.867 358.696 359.88 365.246 365.084 372.418C372.253 382.215 378.15 393.193 382.804 404.839C385.934 412.682 388.511 420.735 390.515 428.937C393.507 441.111 395.469 453.877 401.178 464.697C402.518 467.245 404.121 469.645 405.962 471.859V471.859Z" fill="#4F3DEA"></path><path d="M167.347 531.735L197.515 449.789C212.012 436.95 213.591 428.438 207.576 422.454L217.826 394.617L230.309 399.207C242.131 401.519 250.909 407.904 258.463 415.913L258.719 416.119L275.936 429.992L291.975 435.895L275.569 480.456L256.048 476.649L241.745 478.416L238.09 478.869L230.176 487.528L215.485 503.611C202.839 528.967 196.578 538.394 182.482 534.593L180.588 534.235L167.347 531.735Z" fill="white"></path><path d="M167.347 531.735L197.515 449.789C212.012 436.95 213.591 428.438 207.576 422.454L217.826 394.617L230.309 399.207C242.131 401.519 250.909 407.904 258.463 415.913L258.719 416.119L275.936 429.992L291.975 435.895L275.569 480.456L256.048 476.649L241.745 478.416L238.09 478.869L230.176 487.528L215.485 503.611C202.839 528.967 196.578 538.394 182.482 534.593L180.588 534.235L167.347 531.735Z" fill="#FFB0B0" stroke="#231F20" stroke-linecap="round" stroke-linejoin="round"></path><path d="M167.347 531.735L197.515 449.789C212.012 436.95 213.591 428.438 207.577 422.454L217.826 394.617L230.309 399.207C242.131 401.519 250.909 407.904 258.463 415.913L258.719 416.119L236.866 434.576L241.758 478.428C241.889 479.618 241.762 480.822 241.385 481.959C241.009 483.095 240.391 484.137 239.575 485.013C238.759 485.889 237.763 486.579 236.655 487.035C235.548 487.492 234.355 487.704 233.159 487.658L230.188 487.541L215.485 503.611C202.839 528.967 196.578 538.394 182.482 534.593L180.588 534.235L167.347 531.735Z" fill="#231F20"></path><path d="M167.347 531.735L197.515 449.789C212.012 436.95 213.591 428.438 207.577 422.454L217.826 394.617L230.309 399.207C242.131 401.519 250.909 407.904 258.463 415.913L258.719 416.119L236.866 434.576L241.758 478.428C241.889 479.618 241.762 480.822 241.385 481.959C241.009 483.095 240.391 484.137 239.575 485.013C238.759 485.889 237.763 486.579 236.655 487.035C235.548 487.492 234.355 487.704 233.159 487.658L230.188 487.541L215.485 503.611C202.839 528.967 196.578 538.394 182.482 534.593L180.588 534.235L167.347 531.735Z" stroke="#231F20" stroke-width="4" stroke-linecap="round" stroke-linejoin="round"></path><path d="M167.347 531.735L197.515 449.789C212.012 436.95 213.591 428.438 207.576 422.454L217.826 394.617L230.309 399.207L180.594 534.247L167.347 531.735Z" fill="#4F3DEA"></path><path d="M262.678 489.208L412.009 501.478L412.956 428.586L270.065 413.903L262.678 489.208Z" fill="#72ABFF"></path><path d="M395.212 426.764L270.063 413.903L268.869 423.7" stroke="white" stroke-width="4" stroke-linecap="round" stroke-linejoin="round"></path><path d="M841.998 272.534L836.304 349.892L824.654 331.285C784.619 335.357 748.932 358.318 718.551 384.694C688.17 411.07 661.261 441.509 628.841 465.335C596.421 489.162 556.416 506.299 516.569 500.614C494.189 497.418 473.659 487.359 453.45 476.914C448.391 474.297 443.355 471.658 438.312 469.093C426.591 463.131 414.62 457.243 402.465 451.799C393.563 447.81 384.557 444.061 375.476 440.701C324.584 421.859 271.332 415.207 220.161 446.811C188.667 466.263 63.0328 658.402 52.3978 693.801L12.9514 660.73L-21.3965 631.937C-11.7485 594.096 114.764 399.457 148.045 378.901C170.506 365.029 193.367 358.53 216.253 357.192C259.21 354.692 302.256 370.387 342.924 389.703C350.776 393.43 358.537 397.29 366.189 401.183C374.64 405.478 383.079 409.991 391.617 414.242C408.535 422.661 425.854 430.05 444.45 432.704C458.613 434.727 472.798 433.861 486.65 430.855C511.773 425.374 535.819 412.799 556.716 397.444C589.136 373.614 616.035 343.188 646.419 316.799C676.804 290.411 712.49 267.475 752.522 263.39L735.614 246.324L841.998 272.534Z" fill="white"></path><path d="M841.998 272.534L836.304 349.893L824.654 331.285C784.619 335.357 748.932 358.318 718.551 384.694C688.17 411.07 661.261 441.509 628.841 465.336C596.421 489.162 556.416 506.299 516.569 500.615C488.584 496.607 463.517 481.905 438.312 469.093C369.863 434.286 292.913 401.889 220.161 446.814C188.667 466.267 63.0328 658.405 52.3978 693.805L12.9514 660.73L-21.3965 631.937C-11.7485 594.096 114.764 399.457 148.045 378.901C220.794 333.97 297.743 366.379 366.189 401.183C391.386 413.995 416.465 428.712 444.45 432.705C484.288 438.389 524.292 421.252 556.722 397.429C589.151 373.605 616.041 343.172 646.425 316.784C676.81 290.395 712.496 267.46 752.529 263.375L735.62 246.309L841.998 272.534Z" fill="white"></path><path d="M371.8 323.159L369.995 312.943" stroke="#231F20" stroke-width="2" stroke-linecap="round" stroke-linejoin="round"></path><path d="M438.598 78.4498L490.283 85.7683L484.188 101.404C464.386 109.912 442.015 114.401 435.091 95.3834L438.598 78.4498Z" fill="#231F20"></path><path d="M438.598 78.4498L490.283 85.7683L484.188 101.404C464.386 109.912 442.015 114.401 435.091 95.3834L438.598 78.4498Z" stroke="#231F20" stroke-width="4" stroke-linecap="round" stroke-linejoin="round"></path><path d="M470.377 112.369C481.283 83.3237 514.823 78.6626 536.716 108.43L577.332 140.262L538.666 186.368L501.452 159.902L470.491 122.16L470.377 112.369Z" fill="#231F20"></path><path d="M593.935 160.084L579.559 168.127" stroke="#231F20" stroke-width="2" stroke-linecap="round" stroke-linejoin="round"></path><path d="M245.671 105.134C243.72 102.908 241.266 101.179 238.514 100.089C235.761 99.0001 232.788 98.5822 229.841 98.8702L258.531 73.7205L233.44 45.127C237.283 45.9876 241.299 45.6114 244.915 44.0521C248.53 42.4929 251.559 39.8305 253.569 36.4461C255.579 33.0616 256.466 29.1285 256.104 25.2095C255.741 21.2906 254.148 17.5867 251.551 14.6278C248.955 11.6689 245.488 9.60676 241.648 8.73639C237.808 7.86602 233.791 8.23205 230.171 9.7821C226.552 11.3322 223.515 13.9868 221.497 17.3661C219.479 20.7455 218.582 24.6763 218.934 28.5962L193.844 0L120.081 64.6553L143.213 91.0174C143.141 87.1948 144.245 83.4421 146.377 80.2675C148.509 77.0929 151.565 74.6499 155.132 73.2691C158.7 71.8884 162.605 71.6367 166.32 72.5481C170.036 73.4595 173.381 75.49 175.903 78.3646C178.425 81.2392 180.002 84.8191 180.421 88.6194C180.84 92.4198 180.081 96.2571 178.245 99.6116C176.41 102.966 173.587 105.676 170.16 107.374C166.732 109.072 162.866 109.676 159.083 109.105L184.768 138.376L213.458 113.229C212.737 116.342 212.828 119.588 213.723 122.655C214.618 125.723 216.287 128.509 218.568 130.747C220.85 132.985 223.669 134.6 226.755 135.436C229.84 136.272 233.089 136.302 236.19 135.523C239.29 134.744 242.138 133.182 244.461 130.986C246.784 128.791 248.504 126.036 249.455 122.985C250.407 119.935 250.558 116.691 249.895 113.565C249.232 110.439 247.776 107.536 245.668 105.134H245.671Z" fill="#4F3DEA"></path><path d="M757.136 507.736C755.312 506.337 753.18 505.393 750.917 504.981C748.655 504.57 746.327 504.704 744.126 505.371L762.155 481.859L738.713 463.89C741.771 463.96 744.773 463.061 747.289 461.323C749.805 459.585 751.707 457.096 752.722 454.212C753.736 451.328 753.813 448.197 752.939 445.267C752.066 442.338 750.288 439.759 747.859 437.9C745.431 436.042 742.476 434.999 739.419 434.92C736.361 434.842 733.357 435.732 730.836 437.463C728.315 439.195 726.407 441.679 725.384 444.56C724.361 447.441 724.276 450.572 725.142 453.504L701.682 435.534L655.32 495.981L676.948 512.548C676.31 509.647 676.58 506.62 677.72 503.877C678.861 501.134 680.817 498.808 683.325 497.214C685.832 495.619 688.769 494.833 691.738 494.963C694.707 495.092 697.564 496.13 699.923 497.936C702.282 499.743 704.029 502.23 704.927 505.062C705.824 507.893 705.829 510.932 704.941 513.767C704.053 516.601 702.315 519.095 699.963 520.909C697.61 522.724 694.756 523.771 691.787 523.911L715.799 542.306L733.828 518.793C733.751 521.275 734.314 523.734 735.462 525.936C736.61 528.137 738.304 530.007 740.383 531.366C742.462 532.725 744.855 533.527 747.333 533.695C749.811 533.864 752.291 533.393 754.535 532.328C756.779 531.264 758.711 529.64 760.147 527.615C761.583 525.589 762.474 523.228 762.734 520.759C762.995 518.291 762.616 515.796 761.635 513.516C760.653 511.235 759.102 509.245 757.13 507.736H757.136Z" fill="white"></path><path d="M336.241 518.288C335.152 517.451 333.877 516.885 332.525 516.639C331.173 516.393 329.781 516.473 328.466 516.873L339.243 502.819L325.218 492.075C327.045 492.118 328.84 491.583 330.345 490.545C331.849 489.507 332.987 488.019 333.594 486.296C334.202 484.573 334.248 482.701 333.727 480.95C333.206 479.198 332.144 477.656 330.693 476.545C329.242 475.434 327.476 474.809 325.648 474.762C323.821 474.714 322.025 475.246 320.518 476.28C319.011 477.314 317.87 478.799 317.258 480.521C316.646 482.243 316.595 484.114 317.112 485.867L303.084 475.126L275.377 511.259L288.307 521.161C287.924 519.427 288.083 517.618 288.763 515.978C289.443 514.338 290.611 512.946 292.109 511.992C293.607 511.037 295.362 510.566 297.137 510.642C298.912 510.718 300.62 511.337 302.031 512.415C303.442 513.494 304.487 514.98 305.025 516.672C305.562 518.364 305.567 520.181 305.037 521.876C304.507 523.57 303.469 525.061 302.063 526.146C300.657 527.232 298.952 527.859 297.177 527.943L311.532 538.939L322.309 524.885C322.264 526.368 322.6 527.837 323.287 529.153C323.973 530.468 324.986 531.586 326.228 532.397C327.47 533.209 328.9 533.688 330.381 533.789C331.862 533.89 333.344 533.608 334.685 532.972C336.026 532.336 337.181 531.366 338.039 530.156C338.897 528.945 339.429 527.535 339.585 526.059C339.741 524.584 339.515 523.093 338.929 521.73C338.343 520.367 337.417 519.178 336.238 518.276L336.241 518.288Z" fill="#F87AFF"></path></g><defs><linearGradient id="paint0_linear_1448_7987" x1="405.463" y1="419.026" x2="743.033" y2="92.2315" gradientUnits="userSpaceOnUse"><stop stop-color="#694BFF"></stop><stop offset="0.29" stop-color="#F87AFF"></stop><stop offset="1" stop-color="#F3D1B1"></stop></linearGradient><linearGradient id="paint1_linear_1448_7987" x1="-25.732" y1="532.111" x2="349.682" y2="320.786" gradientUnits="userSpaceOnUse"><stop offset="0.21" stop-color="#36DDFF"></stop><stop offset="0.99" stop-color="#694BFF"></stop></linearGradient></defs></svg>