<svg xmlns="http://www.w3.org/2000/svg" xmlns:xlink="http://www.w3.org/1999/xlink" xmlns:v="https://vecta.io/nano" width="484" height="484" fill="none"><path d="M424.48 406.794c-12.444 12.772-23.58 20.28-32.105 25.948-83.143 55.27-178.186 39.337-207.57 33.9-47.41-8.786-87.43-14.985-121.812-45.915-78.13-70.285-74.33-216.902-14.63-307.732 7.08-10.77 66.69-98.758 161.938-111.15 2.33-.304 4.067-.476 5.6-.636 14.735-1.554 106.043-9.75 180.494 52.357 10.658 8.9 27.81 24.927 43.714 49.384 58.154 89.43 58.338 227.938-15.62 303.844z" fill="#e5f8c6"></path><path d="M192.36 447.946c2.566-.945 7.316-5.263 8.09-6.9 5.16-10.897 16.14-30.672 12.592-42.918-.605-2.09-10.508-1.907-12.274-3.552-6.342-1.417-8.63-1.515-13.998-5.83-15.847-12.74 5.633-48.322-29.386-51.14-25.656-2.065-44.01 10.805-49.88-27.033s-50.74-99.013-84.11-64.092C4.24 266.522 34.297 292.996 28 319c-5.984 24.71 7.557 40.852 34.13 48.82s16.31 21.08 14.248 43.73c-2.474 27.22 37.464 22.853 55.73 19.254 14.706-2.883 54.108-.304 60.252 17.14z" fill="#97c943"></path><g fill="#fcfdfe"><path d="M207.155 420.052l.13-.568C119.986 399.618 53.913 330.02 30.538 233.3l-.565.136c11.08 45.837 32.615 87.14 62.283 119.426 31.187 33.948 70.92 57.182 114.9 67.19z"></path><path d="M74.56 422.967c20.912-12.763 58.752-21.857 84.354-20.275l.035-.58c-25.7-1.588-63.694 7.544-84.7 20.358zm115.502-7.02l.28-.5c-11.674-6.453-19.643-18.57-23.692-36.018-2.965-12.792-3.8-28.097-2.448-45.492l-.58-.045c-1.344 17.453-.516 32.818 2.462 45.668 4.087 17.622 12.152 29.867 23.978 36.396zM88.22 348.112l.306-.498c-21.372-13.297-47.8-11.993-66.22-8.558l.106.572c18.307-3.412 44.585-4.714 65.807 8.484zM55.346 300.72l.555-.166c-8.45-27.113 1.713-55.134 8.52-69.425l-.525-.25c-6.843 14.36-17.06 42.54-8.55 69.842z"></path></g><path d="M174.994 441.427a884.97 884.97 0 0 0 38.826-9.768c.23.176 2.32-28.754-12.402-42.698-29.06-26.97-13.02-54.442-9.066-70.3 6.476-22.407.358-45.644-21.786-44.277-24.598 1.04-32.196-39.292-30.616-76.64 2.04-18.313-16.65-38.888-33.998-42.574-17.746-4.196-34.144 8.488-36.654 44.876-4.79 42.272 27.492 65.026 40.344 85.04 12.64 19.638-11.8 38.223 10.315 54.773 18.66 14.786 41.5 24.68 35.042 45.577-6.694 20.684-3.456 36.917 19.995 55.993z" fill="#40a9c8"></path><g fill="#beb8f2"><path d="M193.348 441.703c-.017-.254-17.22-59.456-43.407-116.353l-11.565-27.553c-21.474-50.142-41.75-97.505-28.145-152.982l-.77-.2c-13.677 55.737 6.66 103.217 28.186 153.486l11.565 27.553c26.327 57.208 43.28 115.755 43.347 116.123z"></path><path d="M118.762 251.295l.547-.576c-15.905-15.154-35.352-36.936-45.803-48.632-8.46-9.47-8.493-9.46-8.9-9.37l.1.387-.166.357c.442.283 3.94 4.2 8.367 9.155 10.466 11.708 29.926 33.507 45.854 48.68zm-5.938-22.087c1.574-18.817 8.25-31.65 13.572-39.098 5.8-8.116 11.548-12.088 12.28-12.283l-.078-.298.245-.435c-.207-.118-.427-.043-.762.134-4.805 2.548-23.276 18.82-26.044 51.9zm52.183 133.558l.78-.154c-7.3-36.83 15.22-73.473 25.237-87.52a13.09 13.09 0 0 0 .772-1.125l-.714-.343.358.165-.356-.174c-.047.088-.352.515-.703 1-7.228 10.137-13.158 20.653-17.63 31.276-8.572 20.383-11.178 39.517-7.742 56.865zm-57.957-40.87l-.058-.388-.096.382-.3-.367.265-.394c.533-.1 33.78-.83 51.47 23.4l-.64.47c-17.5-23.98-50.33-23.124-50.642-23.1zm-.057-.4l.096-.386zm83.4 110.54c-.86-7.522.84-20.593 13.82-40.157.737-1.1.737-1.1.7-1.313l-.774.166.386-.086-.37-.136c-.04.084-.298.47-.596.92-13.117 19.763-14.825 33.03-13.95 40.687zm-5.218-13.873l.742-.28c-4.935-13.154-24.44-21.54-35.62-25.367l-.663-.234-.306.732c.087.036.33.12.715.252 11.046 3.783 30.312 12.05 35.132 24.896z"></path></g><path fill-rule="evenodd" d="M360.244 159.34l100.85 2.586c3.59.1 6.997 1.603 9.493 4.2a13.76 13.76 0 0 1 3.854 9.648l-.457 47.993c-.036 3.614-1.492 7.068-4.052 9.614a13.7 13.7 0 0 1-9.627 3.987H358.9c-.123 0-.246-.002-.368-.005h-40.238a1.01 1.01 0 0 1-.631-.19c-.184-.13-.32-.32-.384-.537s-.057-.45.024-.66a1.02 1.02 0 0 1 .423-.507l26.888-17.2.83-45.203c.142-7.78 6.79-13.91 14.8-13.705z" fill="url(#A)" style="mix-blend-mode:multiply"></path><path d="M464.934 141.342l-31.547-23.1.144-65.365c.015-7.106-5.527-13.15-12.41-13.51l-148.21-7.728c-7.66-.4-13.988 5.385-14.094 12.927l-1.17 82.4c-.108 7.635 6.093 13.93 13.816 14.05l192.704 2.964c1.347.023 1.88-1.81.766-2.626z" fill="#40a9c8" style="mix-blend-mode:multiply"></path><path d="M322.82 85.148a8.39 8.39 0 0 1-.686 3.268c-.446 1.032-1.092 1.964-1.903 2.74s-1.77 1.382-2.82 1.78a8.36 8.36 0 0 1-3.289.538c-4.78-.153-8.616-4.15-8.57-8.928a8.4 8.4 0 0 1 .693-3.277 8.38 8.38 0 0 1 1.917-2.744c.817-.776 1.782-1.38 2.837-1.774s2.178-.57 3.303-.52c4.756.18 8.565 4.173 8.52 8.917zm29.2 1.018c.001 1.107-.22 2.203-.652 3.222s-1.062 1.94-1.856 2.7a8.22 8.22 0 0 1-2.766 1.769c-1.03.398-2.13.583-3.236.546-4.683-.15-8.45-4.106-8.414-8.837a8.25 8.25 0 0 1 2.53-5.94 8.22 8.22 0 0 1 2.78-1.761c1.036-.394 2.14-.573 3.247-.53 4.664.166 8.403 4.118 8.367 8.82zm28.634.994c-.026 4.656-3.75 8.316-8.325 8.17s-8.297-4.063-8.266-8.746 3.788-8.33 8.374-8.158 8.244 4.08 8.217 8.734z" fill="#fff"></path><path d="M311.216 186.955l24.416 249.102c.36 3.686-2.2 7.024-5.68 7.42l-122.693 15.27c-7.62.584-11.747-3.278-12.16-7.258l-28-269.29c-.424-4.073 3.436-7.68 11.228-7.524l125.722 5.197c3.577.128 6.8 3.316 7.168 7.08z" fill="url(#B)"></path><path d="M316.735 186.626L341.197 436.8c.36 3.7-2.195 7.055-5.696 7.454l-127.073 14.508c-4.046.462-7.71-2.43-8.12-6.428l-28.075-270.507c-.424-4.092 2.65-7.315 6.803-7.16l130.506 4.84c3.592.135 6.82 3.338 7.192 7.12z" fill="url(#C)"></path><path d="M314.07 200.527l22.72 231.96c.33 3.462-2.058 6.59-5.338 6.954l-119.537 13.29c-3.758.418-7.16-2.284-7.545-6.007L178.5 197.1c-.395-3.802 2.45-6.823 6.304-6.7l122.524 3.542c3.36.1 6.382 3.064 6.733 6.594z" fill="#f4f7fa"></path><path d="M249.827 185.188c.137 1.36-.83 2.428-2.17 2.387s-2.535-1.182-2.672-2.546.836-2.434 2.175-2.387 2.528 1.187 2.666 2.546z" fill="url(#D)"></path><path d="M426.4 298.433s4.342-5.202 12.5-5.45 19.25-5.09 24.023-5.516c1.15-.102 1.722-.433 1.823-.854.2-.867-5.092-2.13-9.787-2.286-8.325-.277-13.18 2.923-14.303 1.278-1.255-1.84 4.12-6.858 3.135-7.983-.764-.872-4.417 1.927-8.327 3.63-2.775 1.212-13.632 14.216-13.632 14.216z" fill="url(#E)"></path><path d="M426.658 288.99l6.06 12.253c-2.828 15.676-7.94 30.85-15.176 45.036-9.8 19.154-32.14 62.813-71.473 66.774-29.997 3.02-55.17-18.496-64.688-26.723-8.81-7.615-16.713-14.33-20.544-25.044-6.052-16.896.058-37.73 14.72-57.35 7.217-9.66 22.235-7.58 26.508 3.705 6.732 17.8 18.082 30.163 31.122 32.578 14.663 2.716 30.992-7.235 37.94-11.452 10.335-6.284 12.97-11.12 25.824-21.08a179.39 179.39 0 0 1 29.708-18.698z" fill="url(#F)"></path><path style="mix-blend-mode:multiply" opacity=".1" d="M307.248 380.57c11.234-2.534 15.474-12.984 30.873-13.922 19.472-1.185 27.834 14.606 40.295 10.44 10.165-3.4 11.855-16.346 18.943-33.012 5.5-12.928 15.033-29.934 32.804-48l2.548 5.146c-2.828 15.676-7.94 30.85-15.176 45.035-9.8 19.154-32.14 62.814-71.473 66.774-29.997 3.02-55.17-18.495-64.688-26.723-8.81-7.615-16.713-14.33-20.544-25.043-1.06-2.982-1.758-6.08-2.08-9.23 23.228 26.572 38.42 30.8 48.497 28.525z" fill="url(#G)"></path><path d="M164.922 455.416c-.237-11.64-.86-75.87 30.18-122.058 7.116-10.587 19.702-29.318 43.87-41.712a103.32 103.32 0 0 1 23.751-8.679l20.678 3.08c9.206 8.394 17.116 18.112 23.473 28.834 5 8.465 13.302 22.47 15.224 40.55 2.238 21.07-6.122 29.378-12.987 62.19a261.14 261.14 0 0 0-5.302 42.553l-71.535 6.16c-.42-12.557-1.538-25.08-3.354-37.51-1.874-12.832-4.487-25.544-7.825-38.073-6.285 25.068-9.2 50.865-8.663 76.706-2.898 1.144-19.208 7.268-34.93-1.12-6.147-3.275-10.17-7.683-12.582-10.918z" fill="url(#H)"></path><path d="M272.972 244.756c15.92-12.998 23.882-19.498 26.84-27.802 6.48-18.146-2.243-38.7-12.668-50.546-14.627-16.624-35.968-19.917-49.474-22.014-17.353-2.684-18.454 1.408-26.543-2.083-22.35-9.65-14.82-41.29-35.594-65.577-22.913-26.796-64.062-25.666-74.453-24.97-55.37 3.706-83.79 51.73-86.617 56.7-26.203 46.04-13.728 101.58 12.97 133.572 7.634 9.146 27.17 32.544 49.77 30.22 21.77-2.238 27.908-26.428 58.18-30.395 4.23-.554 17.045-2.232 31.107 3.197 15.88 6.13 18.357 15.542 35.29 21.456 13.733 4.795 25.667 3.345 28.053 3.023 15.012-2.028 24.594-9.642 43.14-24.783z" fill="url(#I)"></path><path style="mix-blend-mode:multiply" opacity=".1" d="M9.124 119.176c-5.67 51.573.04 70.155 9.394 73.934 13.088 5.288 30.173-19.66 50.624-12.807 18.4 6.163 15.966 30.162 32.855 35.432 21.347 6.66 35.718-28.41 61.234-26.2 30.368 2.62 34.197 54.387 68 63.524 10.24 2.767 24.334 1.91 43.694-9.888l-1.96 1.6c-18.544 15.14-28.127 22.754-43.136 24.78-2.386.322-14.32 1.773-28.052-3.022-16.935-5.914-19.414-15.325-35.29-21.456-14.06-5.43-26.878-3.752-31.106-3.197-30.272 3.967-36.4 28.157-58.18 30.394-22.607 2.324-42.138-21.08-49.77-30.22C2.773 212.495-9.75 162.855 9.124 119.176z" fill="url(#J)"></path><path d="M279.988 251.806s.58 14.96 0 25.003c-.424 7.35 5.92 11.54 5.92 11.54s3.48 5.975-15.36 6.98-37.18 0-37.18 0L256 279.8c4.208-3.256 6.462-27.654 3.773-43.102z" fill="url(#K)"></path><path d="M284.8 203.533s9.59 23.168 9.54 37.165-9.82 22.03-17.225 18.566-18.574-18.014-18.574-18.014-1.5 3.92-7.184 0-9.904-25.927 1.148-19.682c0 0-1.75-6.17.976-15.115s28.09-18.6 31.32-2.92z" fill="#ffcbad"></path><path style="mix-blend-mode:multiply" opacity=".1" d="M205.16 425.683c8.312-13.067-4.362-24.4 1.022-45.082 4.595-17.65 19.55-31.428 25.057-29.2 7.598 3.078-7.33 34.903 7.67 49.692 9.96 9.817 22.94 2.104 36.306 10.76 8.814 5.706 17.67 18.46 18.362 49.203l-61.3 5.278c-.418-12.557-1.538-25.08-3.353-37.512-1.875-12.83-4.487-25.543-7.825-38.072-6.286 25.068-9.2 50.865-8.663 76.706-2.898 1.144-19.21 7.268-34.93-1.12-.878-.468-1.708-.963-2.5-1.47.403-6.782 2.14-14.53 7.152-21.246 8.148-10.928 16.997-8.48 23.01-17.936z" fill="url(#L)"></path><g fill="#fff"><path d="M268.99 252.9c-13.42 0-18.48-19.27-18.533-19.482-.056-.238-.016-.5.11-.7a.94.94 0 0 1 .569-.422.93.93 0 0 1 1.131.66c.053.21 5.496 20.923 19.692 17.727a.93.93 0 0 1 .688.137c.203.133.346.34.4.577a.94.94 0 0 1-.677 1.111 15.39 15.39 0 0 1-3.38.391z"></path><path d="M277.06 254.64c2.587-.668 4.387-2.36 4.022-3.782s-2.76-2.032-5.345-1.364-4.387 2.36-4.02 3.782 2.758 2.032 5.344 1.364zm-25.53-17.403c2.4-.628 3.55-4.27 2.547-8.137s-3.772-6.492-6.182-5.864-3.55 4.272-2.547 8.138 3.77 6.492 6.182 5.863z"></path></g><defs><linearGradient id="A" x1="467790" y1="28902.1" x2="459567" y2="55583.898" xlink:href="#M"><stop stop-color="#eae7ea"></stop><stop offset="1" stop-color="#dadada"></stop></linearGradient><linearGradient id="B" x1="164.387" y1="316.186" x2="337.996" y2="319.634" xlink:href="#M"><stop stop-color="#b7c0ce"></stop><stop offset="1" stop-color="#ebeff2"></stop></linearGradient><linearGradient id="C" x1="237.908" y1="358.526" x2="262.633" y2="294.072" xlink:href="#M"><stop offset=".49" stop-color="#ebeff2"></stop><stop offset="1" stop-color="#fff"></stop></linearGradient><linearGradient id="D" x1="19949" y1="5561" x2="15351.8" y2="17131.6" xlink:href="#M"><stop stop-color="#ffc444"></stop><stop offset="1" stop-color="#f36f56"></stop></linearGradient><linearGradient id="E" x1="467.731" y1="306.992" x2="462.864" y2="270.713" xlink:href="#M"><stop stop-color="#ffcbad"></stop><stop offset="1" stop-color="#df956a"></stop></linearGradient><linearGradient id="F" x1="258.52" y1="351.687" x2="432.718" y2="351.687" xlink:href="#M"><stop stop-color="#40a9c8"></stop><stop offset="1" stop-color="#a4cf59"></stop></linearGradient><linearGradient id="G" x1="454719" y1="393568" x2="341045" y2="296525" xlink:href="#M"><stop stop-color="#ff9085"></stop><stop offset="1" stop-color="#fb6fbb"></stop></linearGradient><linearGradient id="H" x1="164.872" y1="377.613" x2="322.469" y2="377.613" xlink:href="#M"><stop stop-color="#40a9c8"></stop><stop offset="1" stop-color="#a4cf59"></stop></linearGradient><linearGradient id="I" x1="226804" y1="119709" x2="220210" y2="106935" xlink:href="#M"><stop stop-color="#444b8c"></stop><stop offset="1" stop-color="#26264f"></stop></linearGradient><linearGradient id="J" x1="-866589" y1="180891" x2="-365363" y2="180891" xlink:href="#M"><stop stop-color="#311944"></stop><stop offset="1" stop-color="#6b3976"></stop></linearGradient><linearGradient id="K" x1="289.841" y1="319.887" x2="260.636" y2="224.819" xlink:href="#M"><stop stop-color="#ffcbad"></stop><stop offset="1" stop-color="#df956a"></stop></linearGradient><linearGradient id="L" x1="387975" y1="296248" x2="275176" y2="296248" xlink:href="#M"><stop stop-color="#ff9085"></stop><stop offset="1" stop-color="#fb6fbb"></stop></linearGradient><linearGradient id="M" gradientUnits="userSpaceOnUse"></linearGradient></defs></svg>